<?xml version="1.0" encoding="utf-8"?>
<!-- Generator: Adobe Illustrator 14.0.0, SVG Export Plug-In . SVG Version: 6.00 Build 43363)  -->
<!DOCTYPE svg PUBLIC "-//W3C//DTD SVG 1.1//EN" "http://www.w3.org/Graphics/SVG/1.1/DTD/svg11.dtd">
<svg version="1.1" id="レイヤー_1" xmlns="http://www.w3.org/2000/svg" xmlns:xlink="http://www.w3.org/1999/xlink" x="0px"
	 y="0px" width="20.879px" height="32.278px" viewBox="0 0 20.879 32.278" enable-background="new 0 0 20.879 32.278"
	 xml:space="preserve">
<g>
	<defs>
		<rect id="SVGID_1_" width="20.879" height="32.278"/>
	</defs>
	<clipPath id="SVGID_2_">
		<use xlink:href="#SVGID_1_"  overflow="visible"/>
	</clipPath>
	
		<path clip-path="url(#SVGID_2_)" fill="none" stroke="#B09E84" stroke-linecap="round" stroke-linejoin="round" stroke-miterlimit="10" d="
		M14.302,22.653c1.521-2.646,3.207-5.11,3.511-5.549c1.594-1.763,2.566-4.1,2.566-6.665c0-5.489-4.45-9.939-9.939-9.939
		c-5.49,0-9.94,4.45-9.94,9.939c0,2.529,0.947,4.837,2.503,6.592c0,0,5.464,7.833,6.067,11.247c0.258,1.464,0.319,2.226,0.401,2.634
		c0.051,0.486,0.456,0.866,0.956,0.866c0.412,0,0.762-0.26,0.899-0.623"/>
	
		<circle clip-path="url(#SVGID_2_)" fill="none" stroke="#B09E84" stroke-linecap="round" stroke-linejoin="round" stroke-miterlimit="10" cx="10.439" cy="10.439" r="3.048"/>
</g>
</svg>
