<?xml version="1.0" encoding="utf-8"?>
<!-- Generator: Adobe Illustrator 14.0.0, SVG Export Plug-In . SVG Version: 6.00 Build 43363)  -->
<!DOCTYPE svg PUBLIC "-//W3C//DTD SVG 1.1//EN" "http://www.w3.org/Graphics/SVG/1.1/DTD/svg11.dtd">
<svg version="1.1" id="レイヤー_1" xmlns="http://www.w3.org/2000/svg" xmlns:xlink="http://www.w3.org/1999/xlink" x="0px"
	 y="0px" width="32.943px" height="31.756px" viewBox="0 0 32.943 31.756" enable-background="new 0 0 32.943 31.756"
	 xml:space="preserve">
<g>
	<defs>
		<rect id="SVGID_1_" width="32.942" height="31.756"/>
	</defs>
	<clipPath id="SVGID_2_">
		<use xlink:href="#SVGID_1_"  overflow="visible"/>
	</clipPath>
	
		<polyline clip-path="url(#SVGID_2_)" fill="none" stroke="#B09E84" stroke-linecap="round" stroke-linejoin="round" stroke-miterlimit="10" points="
		19.426,30.038 1.974,30.038 0.5,9.293 22.331,9.293 21.331,22.106 	"/>
	
		<polyline clip-path="url(#SVGID_2_)" fill="none" stroke="#B09E84" stroke-linecap="round" stroke-linejoin="round" stroke-miterlimit="10" points="
		7.255,1.322 4.138,1.322 4.138,9.293 	"/>
	
		<polyline clip-path="url(#SVGID_2_)" fill="none" stroke="#B09E84" stroke-linecap="round" stroke-linejoin="round" stroke-miterlimit="10" points="
		18.519,9.293 18.519,1.322 15.445,1.322 	"/>
	
		<rect x="7.255" y="0.501" clip-path="url(#SVGID_2_)" fill="none" stroke="#B09E84" stroke-linecap="round" stroke-linejoin="round" stroke-miterlimit="10" width="8.189" height="1.817"/>
	
		<path clip-path="url(#SVGID_2_)" fill="none" stroke="#B09E84" stroke-linecap="round" stroke-linejoin="round" stroke-miterlimit="10" d="
		M25.144,22.262c0,0,2.425-1.975,4.269-5.874c1.846-3.9,3.03-11.078,3.03-11.078l-0.016-0.006c0,0-5.023,5.36-6.868,9.26
		c-1.848,3.9-1.833,7.024-1.833,7.024"/>
	
		<line clip-path="url(#SVGID_2_)" fill="none" stroke="#B09E84" stroke-linecap="round" stroke-linejoin="round" stroke-miterlimit="10" x1="25.167" y1="15.389" x2="29.022" y2="17.213"/>
	
		<path clip-path="url(#SVGID_2_)" fill="none" stroke="#B09E84" stroke-linecap="round" stroke-linejoin="round" stroke-miterlimit="10" d="
		M19.991,31.256c0,0-0.986-4.942,0.259-7.573c1.246-2.634,3.379-2.16,4.169-1.786s2.425,2.022,1.418,4.15
		c-0.315,0.667-1.009,1.43-1.814,2.162"/>
</g>
</svg>
