<?xml version="1.0" encoding="utf-8"?>
<!-- Generator: Adobe Illustrator 14.0.0, SVG Export Plug-In . SVG Version: 6.00 Build 43363)  -->
<!DOCTYPE svg PUBLIC "-//W3C//DTD SVG 1.1//EN" "http://www.w3.org/Graphics/SVG/1.1/DTD/svg11.dtd">
<svg version="1.1" id="レイヤー_1" xmlns="http://www.w3.org/2000/svg" xmlns:xlink="http://www.w3.org/1999/xlink" x="0px"
	 y="0px" width="37.727px" height="30.205px" viewBox="0 0 37.727 30.205" enable-background="new 0 0 37.727 30.205"
	 xml:space="preserve">
<g>
	<defs>
		<rect id="SVGID_1_" width="37.727" height="30.205"/>
	</defs>
	<clipPath id="SVGID_2_">
		<use xlink:href="#SVGID_1_"  overflow="visible"/>
	</clipPath>
	
		<path clip-path="url(#SVGID_2_)" fill="none" stroke="#B09E84" stroke-linecap="round" stroke-linejoin="round" stroke-miterlimit="10" d="
		M29.777,29.705H2.598c-1.159,0-2.098-0.939-2.098-2.101V6.96c0-1.158,0.939-2.1,2.098-2.1h32.53c1.159,0,2.099,0.942,2.099,2.1
		v16.584"/>
	
		<path clip-path="url(#SVGID_2_)" fill="none" stroke="#B09E84" stroke-linecap="round" stroke-linejoin="round" stroke-miterlimit="10" d="
		M4.087,4.86v-2.26c0-1.16,0.94-2.1,2.102-2.1h6.448c1.158,0,2.098,0.94,2.098,2.1v2.26"/>
	
		<circle clip-path="url(#SVGID_2_)" fill="none" stroke="#B09E84" stroke-linecap="round" stroke-linejoin="round" stroke-miterlimit="10" cx="18.862" cy="17.282" r="7.796"/>
	
		<path clip-path="url(#SVGID_2_)" fill="none" stroke="#B09E84" stroke-linecap="round" stroke-linejoin="round" stroke-miterlimit="10" d="
		M21.811,17.282c0,1.631-1.32,2.951-2.947,2.951c-1.628,0-2.949-1.32-2.949-2.951c0-1.627,1.321-2.946,2.949-2.946
		C20.49,14.336,21.811,15.655,21.811,17.282z"/>
	
		<line clip-path="url(#SVGID_2_)" fill="none" stroke="#B09E84" stroke-linecap="round" stroke-linejoin="round" stroke-miterlimit="10" x1="11.065" y1="17.282" x2="0.5" y2="17.282"/>
	
		<line clip-path="url(#SVGID_2_)" fill="none" stroke="#B09E84" stroke-linecap="round" stroke-linejoin="round" stroke-miterlimit="10" x1="26.658" y1="17.282" x2="37.227" y2="17.282"/>
	<path clip-path="url(#SVGID_2_)" fill="#B09E84" d="M32.502,10.57c0,0.607-0.493,1.099-1.1,1.099s-1.101-0.492-1.101-1.099
		c0-0.608,0.494-1.101,1.101-1.101S32.502,9.962,32.502,10.57"/>
</g>
</svg>
