<?xml version="1.0" encoding="utf-8"?>
<!-- Generator: Adobe Illustrator 14.0.0, SVG Export Plug-In . SVG Version: 6.00 Build 43363)  -->
<!DOCTYPE svg PUBLIC "-//W3C//DTD SVG 1.1//EN" "http://www.w3.org/Graphics/SVG/1.1/DTD/svg11.dtd">
<svg version="1.1" id="レイヤー_1" xmlns="http://www.w3.org/2000/svg" xmlns:xlink="http://www.w3.org/1999/xlink" x="0px"
	 y="0px" width="40.402px" height="35.204px" viewBox="0 0 40.402 35.204" enable-background="new 0 0 40.402 35.204"
	 xml:space="preserve">
<g>
	<defs>
		<rect id="SVGID_1_" y="0" width="40.402" height="35.204"/>
	</defs>
	<clipPath id="SVGID_2_">
		<use xlink:href="#SVGID_1_"  overflow="visible"/>
	</clipPath>
	
		<path clip-path="url(#SVGID_2_)" fill="none" stroke="#B09E84" stroke-linecap="round" stroke-linejoin="round" stroke-miterlimit="10" d="
		M39.902,21.965c0-4.794-3.886-8.679-8.68-8.679h-8.56H15.69H9.18c-4.794,0-8.68,3.885-8.68,8.679"/>
	
		<polyline clip-path="url(#SVGID_2_)" fill="none" stroke="#B09E84" stroke-linecap="round" stroke-linejoin="round" stroke-miterlimit="10" points="
		27.324,30.042 0.5,30.042 0.5,21.971 39.902,21.971 39.902,30.042 	"/>
	<line clip-path="url(#SVGID_2_)" fill="#FFFFFF" x1="0.5" y1="30.042" x2="0.5" y2="34.704"/>
	
		<line clip-path="url(#SVGID_2_)" fill="none" stroke="#B09E84" stroke-linecap="round" stroke-linejoin="round" stroke-miterlimit="10" x1="0.5" y1="30.042" x2="0.5" y2="34.704"/>
	<line clip-path="url(#SVGID_2_)" fill="#FFFFFF" x1="39.902" y1="30.042" x2="39.902" y2="34.704"/>
	
		<line clip-path="url(#SVGID_2_)" fill="none" stroke="#B09E84" stroke-linecap="round" stroke-linejoin="round" stroke-miterlimit="10" x1="39.902" y1="30.042" x2="39.902" y2="34.704"/>
	
		<polyline clip-path="url(#SVGID_2_)" fill="none" stroke="#B09E84" stroke-linecap="round" stroke-linejoin="round" stroke-miterlimit="10" points="
		37.349,15.733 37.349,0.5 3.221,0.5 3.221,15.733 	"/>
	
		<path clip-path="url(#SVGID_2_)" fill="none" stroke="#B09E84" stroke-linecap="round" stroke-linejoin="round" stroke-miterlimit="10" d="
		M8.383,13.288V7.499c0-1.399,1.135-2.535,2.534-2.535h4.321c1.4,0,2.535,1.136,2.535,2.535v5.789"/>
	
		<path clip-path="url(#SVGID_2_)" fill="none" stroke="#B09E84" stroke-linecap="round" stroke-linejoin="round" stroke-miterlimit="10" d="
		M22.63,13.288V7.499c0-1.399,1.135-2.535,2.534-2.535h4.321c1.399,0,2.534,1.136,2.534,2.535v5.789"/>
</g>
</svg>
