<?xml version="1.0" encoding="utf-8"?>
<!-- Generator: Adobe Illustrator 14.0.0, SVG Export Plug-In . SVG Version: 6.00 Build 43363)  -->
<!DOCTYPE svg PUBLIC "-//W3C//DTD SVG 1.1//EN" "http://www.w3.org/Graphics/SVG/1.1/DTD/svg11.dtd">
<svg version="1.1" id="レイヤー_1" xmlns="http://www.w3.org/2000/svg" xmlns:xlink="http://www.w3.org/1999/xlink" x="0px"
	 y="0px" width="9.471px" height="8.275px" viewBox="0 0 9.471 8.275" enable-background="new 0 0 9.471 8.275"
	 xml:space="preserve">
<g>
	<path fill="#B09E84" d="M9.471,1.814C9.471,0.813,7.35,0,4.736,0C2.12,0,0,0.813,0,1.814c0,0.021,0.006,0.043,0.008,0.064
		C0.005,1.904,0,1.934,0,1.962c0,0.391,0.314,0.711,0.702,0.711c0.389,0,0.703-0.32,0.703-0.711c0-0.058-0.007-0.111-0.02-0.164
		C1.73,1.357,3.099,1.025,4.736,1.025c1.635,0,3.002,0.332,3.35,0.773C8.073,1.852,8.064,1.904,8.064,1.962
		c0,0.391,0.315,0.711,0.703,0.711s0.703-0.32,0.703-0.711c0-0.029-0.006-0.058-0.009-0.084C9.464,1.857,9.471,1.835,9.471,1.814"/>
	<path fill="#B09E84" d="M7.006,2.408L7.006,2.408h-4.54H2.465L0.856,6.049v0.857v1.369h1.609h0.001h4.539h0.001h1.608V6.906V6.049
		L7.006,2.408z M4.735,6.906c-0.863,0-1.562-0.699-1.562-1.563c0-0.862,0.699-1.562,1.562-1.562c0.862,0,1.563,0.699,1.563,1.562
		C6.298,6.207,5.598,6.906,4.735,6.906"/>
</g>
</svg>
