<?xml version="1.0" encoding="utf-8"?>
<!-- Generator: Adobe Illustrator 14.0.0, SVG Export Plug-In . SVG Version: 6.00 Build 43363)  -->
<!DOCTYPE svg PUBLIC "-//W3C//DTD SVG 1.1//EN" "http://www.w3.org/Graphics/SVG/1.1/DTD/svg11.dtd">
<svg version="1.1" id="レイヤー_1" xmlns="http://www.w3.org/2000/svg" xmlns:xlink="http://www.w3.org/1999/xlink" x="0px"
	 y="0px" width="28.19px" height="24.604px" viewBox="0 0 28.19 24.604" enable-background="new 0 0 28.19 24.604"
	 xml:space="preserve">
<g>
	<defs>
		<rect id="SVGID_1_" y="0" width="28.19" height="24.604"/>
	</defs>
	<clipPath id="SVGID_2_">
		<use xlink:href="#SVGID_1_"  overflow="visible"/>
	</clipPath>
	
		<path clip-path="url(#SVGID_2_)" fill="none" stroke="#B09E84" stroke-linecap="round" stroke-linejoin="round" stroke-miterlimit="10" d="
		M27.689,15.312c0-3.308-2.683-5.988-5.989-5.988h-5.907H10.98H6.488c-3.308,0-5.99,2.68-5.99,5.988"/>
	
		<polyline clip-path="url(#SVGID_2_)" fill="none" stroke="#B09E84" stroke-linecap="round" stroke-linejoin="round" stroke-miterlimit="10" points="
		19.009,20.886 0.498,20.886 0.498,15.316 27.689,15.316 27.689,20.886 	"/>
	<line clip-path="url(#SVGID_2_)" fill="#FFFFFF" x1="0.498" y1="20.886" x2="0.498" y2="24.103"/>
	
		<line clip-path="url(#SVGID_2_)" fill="none" stroke="#B09E84" stroke-linecap="round" stroke-linejoin="round" stroke-miterlimit="10" x1="0.498" y1="20.886" x2="0.498" y2="24.103"/>
	<line clip-path="url(#SVGID_2_)" fill="#FFFFFF" x1="27.689" y1="20.886" x2="27.689" y2="24.103"/>
	
		<line clip-path="url(#SVGID_2_)" fill="none" stroke="#B09E84" stroke-linecap="round" stroke-linejoin="round" stroke-miterlimit="10" x1="27.689" y1="20.886" x2="27.689" y2="24.103"/>
	
		<polyline clip-path="url(#SVGID_2_)" fill="none" stroke="#B09E84" stroke-linecap="round" stroke-linejoin="round" stroke-miterlimit="10" points="
		25.927,11.011 25.927,0.499 2.376,0.499 2.376,11.011 	"/>
	
		<path clip-path="url(#SVGID_2_)" fill="none" stroke="#B09E84" stroke-linecap="round" stroke-linejoin="round" stroke-miterlimit="10" d="
		M5.938,9.323V5.329c0-0.966,0.783-1.75,1.749-1.75h2.982c0.965,0,1.748,0.784,1.748,1.75v3.994"/>
	
		<path clip-path="url(#SVGID_2_)" fill="none" stroke="#B09E84" stroke-linecap="round" stroke-linejoin="round" stroke-miterlimit="10" d="
		M15.769,9.323V5.329c0-0.966,0.783-1.75,1.749-1.75H20.5c0.966,0,1.749,0.784,1.749,1.75v3.994"/>
</g>
</svg>
