<?xml version="1.0" encoding="utf-8"?>
<!-- Generator: Adobe Illustrator 14.0.0, SVG Export Plug-In . SVG Version: 6.00 Build 43363)  -->
<!DOCTYPE svg PUBLIC "-//W3C//DTD SVG 1.1//EN" "http://www.w3.org/Graphics/SVG/1.1/DTD/svg11.dtd">
<svg version="1.1" id="レイヤー_1" xmlns="http://www.w3.org/2000/svg" xmlns:xlink="http://www.w3.org/1999/xlink" x="0px"
	 y="0px" width="27.815px" height="15.174px" viewBox="0 0 27.815 15.174" enable-background="new 0 0 27.815 15.174"
	 xml:space="preserve">
<g>
	<defs>
		<rect id="SVGID_1_" width="27.815" height="15.174"/>
	</defs>
	<clipPath id="SVGID_2_">
		<use xlink:href="#SVGID_1_"  overflow="visible"/>
	</clipPath>
	
		<ellipse clip-path="url(#SVGID_2_)" fill="none" stroke="#B09E84" stroke-linecap="round" stroke-linejoin="round" stroke-miterlimit="10" cx="8.673" cy="3.544" rx="8.174" ry="3.043"/>
	
		<ellipse clip-path="url(#SVGID_2_)" fill="none" stroke="#B09E84" stroke-linecap="round" stroke-linejoin="round" stroke-miterlimit="10" cx="8.674" cy="3.544" rx="2.723" ry="0.744"/>
	<line clip-path="url(#SVGID_2_)" fill="#FFFFFF" x1="5.95" y1="14.5" x2="5.95" y2="13.42"/>
	
		<line clip-path="url(#SVGID_2_)" fill="none" stroke="#B09E84" stroke-linecap="round" stroke-linejoin="round" stroke-miterlimit="10" x1="5.95" y1="14.5" x2="5.95" y2="13.42"/>
	<line clip-path="url(#SVGID_2_)" fill="#FFFFFF" x1="8.904" y1="14.674" x2="8.904" y2="13.42"/>
	
		<line clip-path="url(#SVGID_2_)" fill="none" stroke="#B09E84" stroke-linecap="round" stroke-linejoin="round" stroke-miterlimit="10" x1="8.904" y1="14.674" x2="8.904" y2="13.42"/>
	<line clip-path="url(#SVGID_2_)" fill="#FFFFFF" x1="11.858" y1="14.674" x2="11.858" y2="11.667"/>
	
		<line clip-path="url(#SVGID_2_)" fill="none" stroke="#B09E84" stroke-linecap="round" stroke-linejoin="round" stroke-miterlimit="10" x1="11.858" y1="14.674" x2="11.858" y2="11.667"/>
	<line clip-path="url(#SVGID_2_)" fill="#FFFFFF" x1="14.811" y1="14.674" x2="14.811" y2="13.42"/>
	
		<line clip-path="url(#SVGID_2_)" fill="none" stroke="#B09E84" stroke-linecap="round" stroke-linejoin="round" stroke-miterlimit="10" x1="14.811" y1="14.674" x2="14.811" y2="13.42"/>
	<line clip-path="url(#SVGID_2_)" fill="#FFFFFF" x1="17.764" y1="14.674" x2="17.764" y2="13.42"/>
	
		<line clip-path="url(#SVGID_2_)" fill="none" stroke="#B09E84" stroke-linecap="round" stroke-linejoin="round" stroke-miterlimit="10" x1="17.764" y1="14.674" x2="17.764" y2="13.42"/>
	<line clip-path="url(#SVGID_2_)" fill="#FFFFFF" x1="20.719" y1="14.674" x2="20.719" y2="11.667"/>
	
		<line clip-path="url(#SVGID_2_)" fill="none" stroke="#B09E84" stroke-linecap="round" stroke-linejoin="round" stroke-miterlimit="10" x1="20.719" y1="14.674" x2="20.719" y2="11.667"/>
	<line clip-path="url(#SVGID_2_)" fill="#FFFFFF" x1="23.673" y1="13.42" x2="23.673" y2="14.674"/>
	
		<line clip-path="url(#SVGID_2_)" fill="none" stroke="#B09E84" stroke-linecap="round" stroke-linejoin="round" stroke-miterlimit="10" x1="23.673" y1="13.42" x2="23.673" y2="14.674"/>
	
		<path clip-path="url(#SVGID_2_)" fill="none" stroke="#B09E84" stroke-linecap="round" stroke-linejoin="round" stroke-miterlimit="10" d="
		M27.315,12.105V6.586H16.846H8.672C4.159,6.586,0.5,5.225,0.5,3.543v8.086c0,1.681,3.659,3.044,8.172,3.044h15"/>
	
		<path clip-path="url(#SVGID_2_)" fill="none" stroke="#B09E84" stroke-linecap="round" stroke-linejoin="round" stroke-miterlimit="10" d="
		M16.847,3.544c0,1.681-3.661,3.043-8.174,3.043h8.174V3.544z"/>
</g>
</svg>
