<?xml version="1.0" encoding="utf-8"?>
<!-- Generator: Adobe Illustrator 14.0.0, SVG Export Plug-In . SVG Version: 6.00 Build 43363)  -->
<!DOCTYPE svg PUBLIC "-//W3C//DTD SVG 1.1//EN" "http://www.w3.org/Graphics/SVG/1.1/DTD/svg11.dtd">
<svg version="1.1" id="レイヤー_1" xmlns="http://www.w3.org/2000/svg" xmlns:xlink="http://www.w3.org/1999/xlink" x="0px"
	 y="0px" width="167.101px" height="105.59px" viewBox="0 0 167.101 105.59" enable-background="new 0 0 167.101 105.59"
	 xml:space="preserve">
<g>
	<defs>
		<rect id="SVGID_1_" width="167.101" height="105.59"/>
	</defs>
	<clipPath id="SVGID_2_">
		<use xlink:href="#SVGID_1_"  overflow="visible"/>
	</clipPath>
	<polyline clip-path="url(#SVGID_2_)" fill="none" stroke="#C5B295" stroke-width="0.5" stroke-miterlimit="10" points="
		19.267,103.851 19.267,79.351 10.041,79.351 10.041,53.024 7.017,53.024 7.017,29.649 0.25,29.649 	"/>
	
		<line clip-path="url(#SVGID_2_)" fill="none" stroke="#C5B295" stroke-width="0.5" stroke-miterlimit="10" x1="7.017" y1="0.25" x2="7.017" y2="29.649"/>
</g>
<polyline fill="none" stroke="#C5B295" stroke-width="0.5" stroke-miterlimit="10" points="86.115,92.624 86.115,79.351 
	38.492,79.351 38.492,103.851 "/>
<line fill="none" stroke="#C5B295" stroke-width="0.5" stroke-miterlimit="10" x1="166.851" y1="58.106" x2="124.931" y2="58.106"/>
<g>
	<defs>
		<rect id="SVGID_3_" width="167.101" height="105.59"/>
	</defs>
	<clipPath id="SVGID_4_">
		<use xlink:href="#SVGID_3_"  overflow="visible"/>
	</clipPath>
	<path clip-path="url(#SVGID_4_)" fill="none" stroke="#C5B295" stroke-width="0.5" stroke-miterlimit="10" d="M107.756,75.373
		c0-9.536,7.73-17.267,17.268-17.267"/>
	<polyline clip-path="url(#SVGID_4_)" fill="none" stroke="#C5B295" stroke-width="0.5" stroke-miterlimit="10" points="
		86.115,0.25 86.115,62.946 38.492,62.946 38.492,0.25 	"/>
	
		<line clip-path="url(#SVGID_4_)" fill="none" stroke="#C5B295" stroke-width="0.5" stroke-miterlimit="10" x1="86.115" y1="6.595" x2="38.492" y2="6.595"/>
	
		<circle clip-path="url(#SVGID_4_)" fill="none" stroke="#C5B295" stroke-width="0.5" stroke-miterlimit="10" cx="30.507" cy="94.972" r="3.967"/>
	
		<line clip-path="url(#SVGID_4_)" fill="none" stroke="#C5B295" stroke-width="0.5" stroke-miterlimit="10" x1="45.528" y1="102.11" x2="45.528" y2="105.589"/>
	
		<line clip-path="url(#SVGID_4_)" fill="none" stroke="#C5B295" stroke-width="0.5" stroke-miterlimit="10" x1="70.385" y1="102.11" x2="70.385" y2="105.589"/>
	<polygon clip-path="url(#SVGID_4_)" fill="none" stroke="#C5B295" stroke-width="0.5" stroke-miterlimit="10" points="
		107.756,0.25 107.756,11.476 86.119,11.476 86.119,0.25 0.25,0.25 0.25,103.851 86.119,103.851 86.119,92.624 107.756,92.624 
		107.756,103.851 166.851,103.851 166.851,0.25 	"/>
	
		<line clip-path="url(#SVGID_4_)" fill="none" stroke="#C5B295" stroke-width="0.5" stroke-miterlimit="10" x1="22.555" y1="103.851" x2="22.555" y2="0.25"/>
	
		<line clip-path="url(#SVGID_4_)" fill="none" stroke="#C5B295" stroke-width="0.5" stroke-miterlimit="10" x1="10.916" y1="21.688" x2="7.017" y2="21.688"/>
	
		<line clip-path="url(#SVGID_4_)" fill="none" stroke="#C5B295" stroke-width="0.5" stroke-miterlimit="10" x1="22.555" y1="21.688" x2="13.33" y2="21.688"/>
	
		<line clip-path="url(#SVGID_4_)" fill="none" stroke="#C5B295" stroke-width="0.5" stroke-miterlimit="10" x1="22.555" y1="35.483" x2="13.33" y2="35.483"/>
	
		<line clip-path="url(#SVGID_4_)" fill="none" stroke="#C5B295" stroke-width="0.5" stroke-miterlimit="10" x1="22.555" y1="53.024" x2="13.33" y2="53.024"/>
	
		<line clip-path="url(#SVGID_4_)" fill="none" stroke="#C5B295" stroke-width="0.5" stroke-miterlimit="10" x1="19.267" y1="79.351" x2="22.555" y2="79.351"/>
	
		<line clip-path="url(#SVGID_4_)" fill="none" stroke="#C5B295" stroke-width="0.5" stroke-miterlimit="10" x1="107.756" y1="92.624" x2="107.756" y2="75.382"/>
	<polyline clip-path="url(#SVGID_4_)" fill="none" stroke="#C5B295" stroke-width="0.5" stroke-miterlimit="10" points="
		166.851,35.718 143.837,35.718 143.837,0.25 	"/>
	<path clip-path="url(#SVGID_4_)" fill="none" stroke="#C5B295" stroke-width="0.5" stroke-miterlimit="10" d="M70.146,18.161h9.217
		c1.222,0,2.213-0.992,2.213-2.211v-4.553c0-1.224-0.991-2.215-2.213-2.215H65.932c-1.222,0-2.211,0.991-2.211,2.215v4.906"/>
	<path clip-path="url(#SVGID_4_)" fill="none" stroke="#C5B295" stroke-width="0.5" stroke-miterlimit="10" d="M60.889,16.249
		v-4.852c0-1.224-0.992-2.214-2.213-2.214H45.244c-1.221,0-2.212,0.99-2.212,2.214v4.852"/>
	<path clip-path="url(#SVGID_4_)" fill="none" stroke="#C5B295" stroke-width="0.5" stroke-miterlimit="10" d="M38.493,21.751
		h29.796v-5.502H40.705c-1.222,0-2.212,0.992-2.212,2.215V21.751z"/>
	<path clip-path="url(#SVGID_4_)" fill="none" stroke="#C5B295" stroke-width="0.5" stroke-miterlimit="10" d="M86.115,34.129v0.065
		H70.502c-1.223,0-2.213-0.99-2.213-2.211v-15.68L86.115,34.129z"/>
	<path clip-path="url(#SVGID_4_)" fill="none" stroke="#C5B295" stroke-width="0.5" stroke-miterlimit="10" d="M149.222,9.405
		c-0.469,0-0.848-0.379-0.848-0.848V5.329c0-0.47,0.379-0.85,0.848-0.85h12.242c0.469,0,0.849,0.38,0.849,0.85v3.228
		c0,0.469-0.38,0.848-0.849,0.848H149.222z"/>
	
		<ellipse clip-path="url(#SVGID_4_)" fill="none" stroke="#C5B295" stroke-width="0.5" stroke-miterlimit="10" cx="155.343" cy="18.294" rx="5.902" ry="7.127"/>
	
		<line clip-path="url(#SVGID_4_)" fill="none" stroke="#C5B295" stroke-width="0.5" stroke-miterlimit="10" x1="150.806" y1="13.722" x2="150.806" y2="9.408"/>
	
		<line clip-path="url(#SVGID_4_)" fill="none" stroke="#C5B295" stroke-width="0.5" stroke-miterlimit="10" x1="159.881" y1="13.722" x2="159.881" y2="9.408"/>
	<path clip-path="url(#SVGID_4_)" fill="none" stroke="#C5B295" stroke-width="0.5" stroke-miterlimit="10" d="M22.518,14.15
		l7.084,1.394c0.342,0,0.661,0.102,0.927,0.28"/>
	<path clip-path="url(#SVGID_4_)" fill="none" stroke="#C5B295" stroke-width="0.5" stroke-miterlimit="10" d="M30.507,26.869
		c-0.275,0.2-0.538,0.466-0.905,0.466l-6.999,1.379"/>
	<path clip-path="url(#SVGID_4_)" fill="none" stroke="#C5B295" stroke-width="0.5" stroke-miterlimit="10" d="M31.402,27.649
		c0.253,0.08,0.811,0.186,0.811-0.484V15.649c0-0.672-0.563-0.564-0.815-0.483c-1.463,0.7-2.55,3.219-2.55,6.241
		C28.848,24.433,29.939,26.951,31.402,27.649z"/>
	
		<line clip-path="url(#SVGID_4_)" fill="none" stroke="#C5B295" stroke-width="0.5" stroke-miterlimit="10" x1="164.668" y1="38.901" x2="164.668" y2="54.776"/>
	
		<line clip-path="url(#SVGID_4_)" fill="none" stroke="#C5B295" stroke-width="0.5" stroke-miterlimit="10" x1="164.668" y1="47.034" x2="157.633" y2="47.034"/>
	<path clip-path="url(#SVGID_4_)" fill="none" stroke="#C5B295" stroke-width="0.5" stroke-miterlimit="10" d="M161.918,47.034
		c0,2.376-1.927,4.307-4.306,4.307c-2.376,0-4.306-1.931-4.306-4.307c0-2.379,1.93-4.307,4.306-4.307
		C159.992,42.727,161.918,44.655,161.918,47.034z"/>
	
		<circle clip-path="url(#SVGID_4_)" fill="none" stroke="#C5B295" stroke-width="0.5" stroke-miterlimit="10" cx="157.614" cy="47.034" r="0.958"/>
	<path clip-path="url(#SVGID_4_)" fill="none" stroke="#C5B295" stroke-width="0.5" stroke-miterlimit="10" d="M166.851,99.571
		h-12.594c-2.285,0-4.136-1.854-4.136-4.138V69.366c0-2.283,1.851-4.137,4.136-4.137h12.594"/>
	<path clip-path="url(#SVGID_4_)" fill="none" stroke="#C5B295" stroke-width="0.5" stroke-miterlimit="10" d="M152.956,80.351
		c0-2.487,2.017-4.504,4.504-4.504c2.485,0,4.502,2.017,4.502,4.504v4.1c0,2.487-2.017,4.504-4.502,4.504
		c-2.487,0-4.504-2.017-4.504-4.504V80.351z"/>
	
		<line clip-path="url(#SVGID_4_)" fill="none" stroke="#C5B295" stroke-width="0.5" stroke-miterlimit="10" x1="164.668" y1="78.095" x2="164.668" y2="86.706"/>
	
		<line clip-path="url(#SVGID_4_)" fill="none" stroke="#C5B295" stroke-width="0.5" stroke-miterlimit="10" x1="164.668" y1="82.401" x2="157.486" y2="82.401"/>
	
		<rect x="133.57" y="62.32" clip-path="url(#SVGID_4_)" fill="none" stroke="#C5B295" stroke-width="0.5" stroke-miterlimit="10" width="8.224" height="8.222"/>
	
		<line clip-path="url(#SVGID_4_)" fill="none" stroke="#C5B295" stroke-width="0.5" stroke-miterlimit="10" x1="137.682" y1="58.106" x2="137.682" y2="65.261"/>
	
		<circle clip-path="url(#SVGID_4_)" fill="none" stroke="#C5B295" stroke-width="0.5" stroke-miterlimit="10" cx="17.594" cy="16.203" r="1.938"/>
	
		<line clip-path="url(#SVGID_4_)" fill="none" stroke="#C5B295" stroke-width="0.5" stroke-miterlimit="10" x1="16.832" y1="17.985" x2="16.369" y2="19.07"/>
	<polygon clip-path="url(#SVGID_4_)" fill="none" stroke="#C5B295" stroke-width="0.5" stroke-miterlimit="10" points="
		9.875,13.713 20.417,11.14 18.613,3.752 10.729,5.677 8.721,8.982 	"/>
	<polyline clip-path="url(#SVGID_4_)" fill="none" stroke="#C5B295" stroke-width="0.5" stroke-miterlimit="10" points="
		10.729,5.677 11.376,8.333 8.721,8.982 	"/>
	<polyline clip-path="url(#SVGID_4_)" fill="none" stroke="#C5B295" stroke-width="0.5" stroke-miterlimit="10" points="
		6.992,25.481 10.041,25.481 10.041,22.303 13.33,19.989 13.33,59.61 10.041,57.296 10.041,53.022 	"/>
	
		<line clip-path="url(#SVGID_4_)" fill="none" stroke="#C5B295" stroke-width="0.5" stroke-miterlimit="10" x1="10.041" y1="54.175" x2="10.041" y2="25.425"/>
	
		<line clip-path="url(#SVGID_4_)" fill="none" stroke="#C5B295" stroke-width="0.5" stroke-miterlimit="10" x1="30.507" y1="91.005" x2="30.507" y2="98.938"/>
	
		<line clip-path="url(#SVGID_4_)" fill="none" stroke="#C5B295" stroke-width="0.5" stroke-miterlimit="10" x1="26.54" y1="94.972" x2="34.474" y2="94.972"/>
	<path clip-path="url(#SVGID_4_)" fill="none" stroke="#C5B295" stroke-width="0.5" stroke-miterlimit="10" d="M113.366,0.304
		c0,13.711,11.118,24.826,24.827,24.826"/>
	
		<line clip-path="url(#SVGID_4_)" fill="none" stroke="#C5B295" stroke-width="0.5" stroke-miterlimit="10" x1="138.228" y1="27.204" x2="138.228" y2="0.25"/>
	
		<line clip-path="url(#SVGID_4_)" fill="none" stroke="#C5B295" stroke-width="0.5" stroke-miterlimit="10" x1="106.269" y1="77.513" x2="109.244" y2="77.513"/>
	
		<line clip-path="url(#SVGID_4_)" fill="none" stroke="#C5B295" stroke-width="0.5" stroke-miterlimit="10" x1="106.269" y1="90.024" x2="109.244" y2="90.024"/>
	
		<line clip-path="url(#SVGID_4_)" fill="none" stroke="#C5B295" stroke-width="0.5" stroke-miterlimit="10" x1="142.352" y1="20.612" x2="145.325" y2="20.612"/>
	
		<line clip-path="url(#SVGID_4_)" fill="none" stroke="#C5B295" stroke-width="0.5" stroke-miterlimit="10" x1="142.352" y1="33.126" x2="145.325" y2="33.126"/>
	<path clip-path="url(#SVGID_4_)" fill="none" stroke="#C5B295" stroke-width="0.5" stroke-miterlimit="10" d="M96.253,28.097
		c1,0,1.812,0.811,1.812,1.809c0,1-0.812,1.812-1.812,1.812H96.12c-0.028,0.001,0,0-0.028,0h-1.27c-0.502,0-0.912-0.41-0.912-0.914
		v-1.795c0-0.503,0.41-0.912,0.912-0.912h1.27c0.028,0,0.105-0.001,0.133,0H96.253z"/>
	<path clip-path="url(#SVGID_4_)" fill="none" stroke="#C5B295" stroke-width="0.5" stroke-miterlimit="10" d="M94.056,31.299
		h-1.271c-0.748,0-1.354-0.608-1.354-1.356c0-0.745,0.606-1.355,1.354-1.355h1.271"/>
	<path clip-path="url(#SVGID_4_)" fill="none" stroke="#C5B295" stroke-width="0.5" stroke-miterlimit="10" d="M96.253,32.7
		c1,0,1.812,0.812,1.812,1.811s-0.812,1.81-1.812,1.81H96.12h-0.028h-1.27c-0.502,0-0.912-0.408-0.912-0.914v-1.793
		c0-0.506,0.41-0.914,0.912-0.914h1.27h0.133H96.253z"/>
	<path clip-path="url(#SVGID_4_)" fill="none" stroke="#C5B295" stroke-width="0.5" stroke-miterlimit="10" d="M94.056,35.902
		h-1.271c-0.748,0-1.354-0.606-1.354-1.354c0-0.747,0.606-1.354,1.354-1.354h1.271"/>
</g>
</svg>
