<?xml version="1.0" encoding="utf-8"?>
<!-- Generator: Adobe Illustrator 14.0.0, SVG Export Plug-In . SVG Version: 6.00 Build 43363)  -->
<!DOCTYPE svg PUBLIC "-//W3C//DTD SVG 1.1//EN" "http://www.w3.org/Graphics/SVG/1.1/DTD/svg11.dtd">
<svg version="1.1" id="レイヤー_1" xmlns="http://www.w3.org/2000/svg" xmlns:xlink="http://www.w3.org/1999/xlink" x="0px"
	 y="0px" width="148.901px" height="116.182px" viewBox="0 0 148.901 116.182" enable-background="new 0 0 148.901 116.182"
	 xml:space="preserve">
<g>
	<defs>
		<rect id="SVGID_1_" y="0" width="148.901" height="116.182"/>
	</defs>
	<clipPath id="SVGID_2_">
		<use xlink:href="#SVGID_1_"  overflow="visible"/>
	</clipPath>
	<path clip-path="url(#SVGID_2_)" fill="none" stroke="#C5B295" stroke-width="0.5" stroke-miterlimit="10" d="M64.215,80.666
		v-8.822c0-1.17-0.949-2.12-2.116-2.12H57.74c-1.171,0-2.12,0.95-2.12,2.12v12.857c0,1.168,0.949,2.117,2.12,2.117h4.697"/>
	<path clip-path="url(#SVGID_2_)" fill="none" stroke="#C5B295" stroke-width="0.5" stroke-miterlimit="10" d="M62.386,89.527H57.74
		c-1.171,0-2.12,0.949-2.12,2.119v12.857c0,1.168,0.949,2.117,2.12,2.117h4.646"/>
	<path clip-path="url(#SVGID_2_)" fill="none" stroke="#C5B295" stroke-width="0.5" stroke-miterlimit="10" d="M67.652,110.965
		V82.443h-5.266v26.404c0,1.17,0.949,2.117,2.12,2.117H67.652z"/>
	<path clip-path="url(#SVGID_2_)" fill="none" stroke="#C5B295" stroke-width="0.5" stroke-miterlimit="10" d="M79.5,65.381h0.063
		v14.945c0,1.17-0.948,2.116-2.117,2.116H62.438L79.5,65.381z"/>
	<path clip-path="url(#SVGID_2_)" fill="none" stroke="#C5B295" stroke-width="0.5" stroke-miterlimit="10" d="M105.008,54.508
		c0-1,0.812-1.81,1.81-1.81c0.999,0,1.811,0.81,1.811,1.81v0.134c0.002,0.029,0,0,0,0.029v1.269c0,0.503-0.409,0.912-0.913,0.912
		h-1.795c-0.503,0-0.912-0.409-0.912-0.912v-1.269c0-0.029-0.002-0.106,0-0.132V54.508z"/>
	<path clip-path="url(#SVGID_2_)" fill="none" stroke="#C5B295" stroke-width="0.5" stroke-miterlimit="10" d="M108.211,56.705
		v1.271c0,0.749-0.609,1.354-1.357,1.354c-0.743,0-1.354-0.605-1.354-1.354v-1.271"/>
	<path clip-path="url(#SVGID_2_)" fill="none" stroke="#C5B295" stroke-width="0.5" stroke-miterlimit="10" d="M109.612,54.508
		c0-1,0.812-1.81,1.811-1.81c1,0,1.811,0.81,1.811,1.81v0.134c0.001,0.029,0,0,0,0.029v1.269c0,0.503-0.408,0.912-0.914,0.912
		h-1.794c-0.504,0-0.913-0.409-0.913-0.912v-1.269v-0.132V54.508z"/>
	<path clip-path="url(#SVGID_2_)" fill="none" stroke="#C5B295" stroke-width="0.5" stroke-miterlimit="10" d="M112.814,56.705
		v1.271c0,0.749-0.606,1.354-1.354,1.354c-0.746,0-1.355-0.605-1.355-1.354v-1.271"/>
	<polygon clip-path="url(#SVGID_2_)" fill="none" stroke="#C5B295" stroke-width="0.5" stroke-miterlimit="10" points="
		148.651,0.25 0.25,0.25 0.25,92.951 21.283,92.951 21.283,115.932 123.333,115.932 123.333,92.951 148.651,92.951 	"/>
	<polyline clip-path="url(#SVGID_2_)" fill="none" stroke="#C5B295" stroke-width="0.5" stroke-miterlimit="10" points="
		88.764,115.932 88.764,110.965 21.283,110.965 	"/>
	<polyline clip-path="url(#SVGID_2_)" fill="none" stroke="#C5B295" stroke-width="0.5" stroke-miterlimit="10" points="
		123.333,110.965 42.998,110.965 42.998,65.381 120.028,65.381 	"/>
	
		<line clip-path="url(#SVGID_2_)" fill="none" stroke="#C5B295" stroke-width="0.5" stroke-miterlimit="10" x1="52.637" y1="65.381" x2="52.637" y2="110.965"/>
	
		<rect x="126.365" y="80.392" clip-path="url(#SVGID_2_)" fill="none" stroke="#C5B295" stroke-width="0.5" stroke-miterlimit="10" width="12.562" height="12.562"/>
	
		<line clip-path="url(#SVGID_2_)" fill="none" stroke="#C5B295" stroke-width="0.5" stroke-miterlimit="10" x1="148.651" y1="31.51" x2="0.25" y2="31.51"/>
	<polyline clip-path="url(#SVGID_2_)" fill="none" stroke="#C5B295" stroke-width="0.5" stroke-miterlimit="10" points="
		0.25,42.117 21.283,42.117 21.283,92.947 	"/>
	
		<line clip-path="url(#SVGID_2_)" fill="none" stroke="#C5B295" stroke-width="0.5" stroke-miterlimit="10" x1="36.896" y1="31.51" x2="36.896" y2="0.25"/>
	<path clip-path="url(#SVGID_2_)" fill="none" stroke="#C5B295" stroke-width="0.5" stroke-miterlimit="10" d="M148.606,62.869
		c-11.445,0-20.721-9.28-20.721-20.722"/>
	
		<line clip-path="url(#SVGID_2_)" fill="none" stroke="#C5B295" stroke-width="0.5" stroke-miterlimit="10" x1="126.154" y1="42.117" x2="148.651" y2="42.117"/>
	<polygon clip-path="url(#SVGID_2_)" fill="none" stroke="#C5B295" stroke-width="0.5" stroke-miterlimit="10" points="
		93.211,27.631 69.039,27.631 69.039,5.893 69.039,0.25 93.211,0.25 	"/>
	
		<line clip-path="url(#SVGID_2_)" fill="none" stroke="#C5B295" stroke-width="0.5" stroke-miterlimit="10" x1="93.211" y1="6.426" x2="69.039" y2="6.426"/>
	<path clip-path="url(#SVGID_2_)" fill="none" stroke="#C5B295" stroke-width="0.5" stroke-miterlimit="10" d="M76.117,14.195
		c0-2.767,2.242-5.009,5.009-5.009c2.765,0,5.007,2.242,5.007,5.009v4.561c0,2.765-2.242,5.007-5.007,5.007
		c-2.767,0-5.009-2.242-5.009-5.007V14.195z"/>
	<path clip-path="url(#SVGID_2_)" fill="none" stroke="#C5B295" stroke-width="0.5" stroke-miterlimit="10" d="M139.347,9.758
		c0-0.469,0.379-0.848,0.848-0.848h3.229c0.469,0,0.849,0.379,0.849,0.848V22c0,0.469-0.38,0.848-0.849,0.848h-3.229
		c-0.469,0-0.848-0.379-0.848-0.848V9.758z"/>
	
		<ellipse clip-path="url(#SVGID_2_)" fill="none" stroke="#C5B295" stroke-width="0.5" stroke-miterlimit="10" cx="130.459" cy="15.879" rx="7.127" ry="5.902"/>
	
		<line clip-path="url(#SVGID_2_)" fill="none" stroke="#C5B295" stroke-width="0.5" stroke-miterlimit="10" x1="135.032" y1="11.342" x2="139.345" y2="11.342"/>
	
		<line clip-path="url(#SVGID_2_)" fill="none" stroke="#C5B295" stroke-width="0.5" stroke-miterlimit="10" x1="135.032" y1="20.416" x2="139.345" y2="20.416"/>
	
		<line clip-path="url(#SVGID_2_)" fill="none" stroke="#C5B295" stroke-width="0.5" stroke-miterlimit="10" x1="99.565" y1="32.996" x2="99.565" y2="30.022"/>
	
		<line clip-path="url(#SVGID_2_)" fill="none" stroke="#C5B295" stroke-width="0.5" stroke-miterlimit="10" x1="119.66" y1="32.996" x2="119.66" y2="30.022"/>
	
		<line clip-path="url(#SVGID_2_)" fill="none" stroke="#C5B295" stroke-width="0.5" stroke-miterlimit="10" x1="42.59" y1="32.996" x2="42.59" y2="30.022"/>
	
		<line clip-path="url(#SVGID_2_)" fill="none" stroke="#C5B295" stroke-width="0.5" stroke-miterlimit="10" x1="62.685" y1="32.996" x2="62.685" y2="30.022"/>
	
		<line clip-path="url(#SVGID_2_)" fill="none" stroke="#C5B295" stroke-width="0.5" stroke-miterlimit="10" x1="38.383" y1="25.927" x2="35.41" y2="25.927"/>
	
		<line clip-path="url(#SVGID_2_)" fill="none" stroke="#C5B295" stroke-width="0.5" stroke-miterlimit="10" x1="38.383" y1="5.832" x2="35.41" y2="5.832"/>
	
		<rect x="3.767" y="12.449" clip-path="url(#SVGID_2_)" fill="none" stroke="#C5B295" stroke-width="0.5" stroke-miterlimit="10" width="6.862" height="6.862"/>
	
		<line clip-path="url(#SVGID_2_)" fill="none" stroke="#C5B295" stroke-width="0.5" stroke-miterlimit="10" x1="0.25" y1="15.879" x2="6.221" y2="15.879"/>
	
		<line clip-path="url(#SVGID_2_)" fill="none" stroke="#C5B295" stroke-width="0.5" stroke-miterlimit="10" x1="80.199" y1="16.477" x2="74.453" y2="16.477"/>
	
		<line clip-path="url(#SVGID_2_)" fill="none" stroke="#C5B295" stroke-width="0.5" stroke-miterlimit="10" x1="87.795" y1="16.477" x2="82.051" y2="16.477"/>
	
		<rect x="80.199" y="12.882" clip-path="url(#SVGID_2_)" fill="none" stroke="#C5B295" stroke-width="0.5" stroke-miterlimit="10" width="1.853" height="7.188"/>
	
		<circle clip-path="url(#SVGID_2_)" fill="none" stroke="#C5B295" stroke-width="0.5" stroke-miterlimit="10" cx="14.369" cy="50.497" r="2.209"/>
	
		<line clip-path="url(#SVGID_2_)" fill="none" stroke="#C5B295" stroke-width="0.5" stroke-miterlimit="10" x1="14.369" y1="48.287" x2="14.369" y2="46.943"/>
	<polygon clip-path="url(#SVGID_2_)" fill="none" stroke="#C5B295" stroke-width="0.5" stroke-miterlimit="10" points="
		5.835,65.473 17.85,62.541 15.794,54.122 6.807,56.316 4.519,60.082 	"/>
	<polyline clip-path="url(#SVGID_2_)" fill="none" stroke="#C5B295" stroke-width="0.5" stroke-miterlimit="10" points="
		6.807,56.316 7.546,59.343 4.519,60.082 	"/>
	<path clip-path="url(#SVGID_2_)" fill="none" stroke="#C5B295" stroke-width="0.5" stroke-miterlimit="10" d="M21.164,50.355
		l8.507,1.674c0.343,0,0.662,0.103,0.927,0.281"/>
	<path clip-path="url(#SVGID_2_)" fill="none" stroke="#C5B295" stroke-width="0.5" stroke-miterlimit="10" d="M30.577,63.354
		c-0.276,0.2-0.539,0.466-0.906,0.466l-8.507,1.676"/>
	<path clip-path="url(#SVGID_2_)" fill="none" stroke="#C5B295" stroke-width="0.5" stroke-miterlimit="10" d="M31.471,64.135
		c0.254,0.08,0.811,0.186,0.811-0.484V52.136c0-0.673-0.563-0.565-0.814-0.484c-1.463,0.7-2.55,3.219-2.55,6.241
		C28.918,60.918,30.009,63.436,31.471,64.135z"/>
	<polygon clip-path="url(#SVGID_2_)" fill="none" stroke="#C5B295" stroke-width="0.5" stroke-miterlimit="10" points="
		123.317,61.106 123.317,65.381 126.366,65.381 126.366,92.921 123.317,92.921 123.317,96.098 120.028,98.412 120.028,58.791 	"/>
	
		<line clip-path="url(#SVGID_2_)" fill="none" stroke="#C5B295" stroke-width="0.5" stroke-miterlimit="10" x1="123.317" y1="64.172" x2="123.317" y2="92.921"/>
</g>
</svg>
