<?xml version="1.0" encoding="utf-8"?>
<!-- Generator: Adobe Illustrator 14.0.0, SVG Export Plug-In . SVG Version: 6.00 Build 43363)  -->
<!DOCTYPE svg PUBLIC "-//W3C//DTD SVG 1.1//EN" "http://www.w3.org/Graphics/SVG/1.1/DTD/svg11.dtd">
<svg version="1.1" id="レイヤー_1" xmlns="http://www.w3.org/2000/svg" xmlns:xlink="http://www.w3.org/1999/xlink" x="0px"
	 y="0px" width="254.513px" height="44.958px" viewBox="0 0 254.513 44.958" enable-background="new 0 0 254.513 44.958"
	 xml:space="preserve">
<g>
	<defs>
		<rect id="SVGID_1_" y="0" width="254.513" height="44.958"/>
	</defs>
	<clipPath id="SVGID_2_">
		<use xlink:href="#SVGID_1_"  overflow="visible"/>
	</clipPath>
	<path clip-path="url(#SVGID_2_)" fill="none" stroke="#C5B295" stroke-width="0.5" stroke-miterlimit="10" d="M23.751,9.163
		c0-1.205-1.914-2.183-4.392-2.183c-2.476,0-4.486,0.978-4.486,2.183"/>
	<path clip-path="url(#SVGID_2_)" fill="none" stroke="#C5B295" stroke-width="0.5" stroke-miterlimit="10" d="M14.839,11.829v2.445
		c0,0.569,0.461,1.031,1.028,1.031l6.88-0.007c0.569,0,1.03-0.461,1.03-1.03v-0.741"/>
	<path clip-path="url(#SVGID_2_)" fill="none" stroke="#C5B295" stroke-width="0.5" stroke-miterlimit="10" d="M32.784,9.163
		c0-1.205-2.009-2.183-4.486-2.183s-4.547,0.978-4.547,2.183"/>
	<path clip-path="url(#SVGID_2_)" fill="none" stroke="#C5B295" stroke-width="0.5" stroke-miterlimit="10" d="M23.777,13.533v0.741
		c0,0.569,0.46,1.03,1.028,1.03l6.974-0.006c0.568,0,1.03-0.461,1.03-1.03v-0.741"/>
	<path clip-path="url(#SVGID_2_)" fill="none" stroke="#C5B295" stroke-width="0.5" stroke-miterlimit="10" d="M41.74,9.163
		c0-1.205-2.009-2.183-4.487-2.183c-2.476,0-4.486,0.978-4.486,2.183"/>
	<path clip-path="url(#SVGID_2_)" fill="none" stroke="#C5B295" stroke-width="0.5" stroke-miterlimit="10" d="M32.81,13.533v0.741
		c0,0.569,0.462,1.03,1.028,1.03l6.872-0.006c0.57,0,1.031-0.461,1.031-1.03v-2.446"/>
	
		<line clip-path="url(#SVGID_2_)" fill="none" stroke="#C5B295" stroke-width="0.5" stroke-miterlimit="10" x1="32.768" y1="8.894" x2="32.768" y2="6.206"/>
	
		<line clip-path="url(#SVGID_2_)" fill="none" stroke="#C5B295" stroke-width="0.5" stroke-miterlimit="10" x1="23.751" y1="8.832" x2="23.751" y2="6.207"/>
	
		<circle clip-path="url(#SVGID_2_)" fill="none" stroke="#C5B295" stroke-width="0.5" stroke-miterlimit="10" cx="28.27" cy="11.386" r="0.309"/>
	
		<line clip-path="url(#SVGID_2_)" fill="none" stroke="#C5B295" stroke-width="0.5" stroke-miterlimit="10" x1="28.667" y1="11.785" x2="29.178" y2="12.294"/>
	
		<line clip-path="url(#SVGID_2_)" fill="none" stroke="#C5B295" stroke-width="0.5" stroke-miterlimit="10" x1="27.357" y1="10.474" x2="27.868" y2="10.984"/>
	
		<line clip-path="url(#SVGID_2_)" fill="none" stroke="#C5B295" stroke-width="0.5" stroke-miterlimit="10" x1="27.867" y1="11.785" x2="27.357" y2="12.295"/>
	
		<line clip-path="url(#SVGID_2_)" fill="none" stroke="#C5B295" stroke-width="0.5" stroke-miterlimit="10" x1="29.179" y1="10.474" x2="28.668" y2="10.984"/>
	
		<circle clip-path="url(#SVGID_2_)" fill="none" stroke="#C5B295" stroke-width="0.5" stroke-miterlimit="10" cx="37.29" cy="11.386" r="0.309"/>
	
		<line clip-path="url(#SVGID_2_)" fill="none" stroke="#C5B295" stroke-width="0.5" stroke-miterlimit="10" x1="37.687" y1="11.785" x2="38.199" y2="12.294"/>
	
		<line clip-path="url(#SVGID_2_)" fill="none" stroke="#C5B295" stroke-width="0.5" stroke-miterlimit="10" x1="36.376" y1="10.474" x2="36.888" y2="10.984"/>
	
		<line clip-path="url(#SVGID_2_)" fill="none" stroke="#C5B295" stroke-width="0.5" stroke-miterlimit="10" x1="36.887" y1="11.785" x2="36.375" y2="12.295"/>
	
		<line clip-path="url(#SVGID_2_)" fill="none" stroke="#C5B295" stroke-width="0.5" stroke-miterlimit="10" x1="38.198" y1="10.474" x2="37.688" y2="10.984"/>
	
		<circle clip-path="url(#SVGID_2_)" fill="none" stroke="#C5B295" stroke-width="0.5" stroke-miterlimit="10" cx="19.31" cy="11.386" r="0.309"/>
	
		<line clip-path="url(#SVGID_2_)" fill="none" stroke="#C5B295" stroke-width="0.5" stroke-miterlimit="10" x1="19.708" y1="11.785" x2="20.218" y2="12.294"/>
	
		<line clip-path="url(#SVGID_2_)" fill="none" stroke="#C5B295" stroke-width="0.5" stroke-miterlimit="10" x1="18.396" y1="10.474" x2="18.909" y2="10.984"/>
	
		<line clip-path="url(#SVGID_2_)" fill="none" stroke="#C5B295" stroke-width="0.5" stroke-miterlimit="10" x1="18.907" y1="11.785" x2="18.396" y2="12.295"/>
	
		<line clip-path="url(#SVGID_2_)" fill="none" stroke="#C5B295" stroke-width="0.5" stroke-miterlimit="10" x1="20.219" y1="10.474" x2="19.708" y2="10.984"/>
	<path clip-path="url(#SVGID_2_)" fill="none" stroke="#C5B295" stroke-width="0.5" stroke-miterlimit="10" d="M13.292,14.547
		c0,0.001-0.001,0.003-0.001,0.005c0,0.427,0.348,0.771,0.774,0.771c0.427,0,0.774-0.344,0.774-0.771V6.207H41.74v8.341
		c0,0.001-0.001,0.003-0.001,0.005c0,0.427,0.348,0.771,0.774,0.771c0.428,0,0.775-0.344,0.775-0.771V5.434
		c0-0.427-0.347-0.775-0.774-0.775H14.065c-0.426,0-0.773,0.348-0.773,0.775v0.002V14.547z"/>
	<polyline clip-path="url(#SVGID_2_)" fill="none" stroke="#C5B295" stroke-width="0.5" stroke-miterlimit="10" points="
		205.214,9.349 182.584,9.349 182.584,0.249 	"/>
	<polyline clip-path="url(#SVGID_2_)" fill="none" stroke="#C5B295" stroke-width="0.5" stroke-miterlimit="10" points="
		135.182,44.708 135.182,41.297 179.556,41.297 179.556,44.708 	"/>
	<polyline clip-path="url(#SVGID_2_)" fill="none" stroke="#C5B295" stroke-width="0.5" stroke-miterlimit="10" points="
		138.06,41.297 138.06,16.605 155.133,16.605 155.133,41.297 	"/>
	<polyline clip-path="url(#SVGID_2_)" fill="none" stroke="#C5B295" stroke-width="0.5" stroke-miterlimit="10" points="
		159.606,41.297 159.606,16.605 176.679,16.605 176.679,41.297 	"/>
	<polyline clip-path="url(#SVGID_2_)" fill="none" stroke="#C5B295" stroke-width="0.5" stroke-miterlimit="10" points="
		223.25,14.993 205.215,14.993 205.215,0.25 	"/>
	
		<line clip-path="url(#SVGID_2_)" fill="none" stroke="#C5B295" stroke-width="0.5" stroke-miterlimit="10" x1="223.25" y1="14.158" x2="223.25" y2="15.828"/>
	
		<line clip-path="url(#SVGID_2_)" fill="none" stroke="#C5B295" stroke-width="0.5" stroke-miterlimit="10" x1="229.557" y1="44.708" x2="229.557" y2="15.07"/>
	
		<line clip-path="url(#SVGID_2_)" fill="none" stroke="#C5B295" stroke-width="0.5" stroke-miterlimit="10" x1="228.835" y1="33.217" x2="230.591" y2="33.217"/>
	
		<line clip-path="url(#SVGID_2_)" fill="none" stroke="#C5B295" stroke-width="0.5" stroke-miterlimit="10" x1="228.835" y1="25.707" x2="229.56" y2="25.707"/>
	
		<line clip-path="url(#SVGID_2_)" fill="none" stroke="#C5B295" stroke-width="0.5" stroke-miterlimit="10" x1="242.611" y1="33.236" x2="254.262" y2="33.236"/>
	
		<line clip-path="url(#SVGID_2_)" fill="none" stroke="#C5B295" stroke-width="0.5" stroke-miterlimit="10" x1="205.181" y1="36.219" x2="229.56" y2="36.219"/>
	
		<circle clip-path="url(#SVGID_2_)" fill="none" stroke="#C5B295" stroke-width="0.5" stroke-miterlimit="10" cx="211.921" cy="40.283" r="2.473"/>
	
		<circle clip-path="url(#SVGID_2_)" fill="none" stroke="#C5B295" stroke-width="0.5" stroke-miterlimit="10" cx="211.92" cy="40.283" r="0.953"/>
	
		<circle clip-path="url(#SVGID_2_)" fill="none" stroke="#C5B295" stroke-width="0.5" stroke-miterlimit="10" cx="222.358" cy="40.283" r="0.953"/>
	
		<line clip-path="url(#SVGID_2_)" fill="none" stroke="#C5B295" stroke-width="0.5" stroke-miterlimit="10" x1="211.919" y1="40.712" x2="211.919" y2="44.708"/>
	<polyline clip-path="url(#SVGID_2_)" fill="none" stroke="#C5B295" stroke-width="0.5" stroke-miterlimit="10" points="
		205.214,44.708 205.214,25.686 214.198,25.686 	"/>
	
		<line clip-path="url(#SVGID_2_)" fill="none" stroke="#C5B295" stroke-width="0.5" stroke-miterlimit="10" x1="190.786" y1="9.349" x2="190.786" y2="0.249"/>
	<polygon clip-path="url(#SVGID_2_)" fill="none" stroke="#C5B295" stroke-width="0.5" stroke-miterlimit="10" points="
		223.25,14.993 223.25,0.25 57.304,0.25 57.304,10.527 47.442,10.527 47.442,0.25 9.574,0.25 9.574,6.269 0.25,6.269 0.25,44.708 
		70.456,44.708 70.456,16.981 129.763,16.981 129.763,44.708 254.263,44.708 254.263,14.993 	"/>
	
		<line clip-path="url(#SVGID_2_)" fill="none" stroke="#C5B295" stroke-width="0.5" stroke-miterlimit="10" x1="70.456" y1="16.976" x2="57.382" y2="16.976"/>
	
		<line clip-path="url(#SVGID_2_)" fill="none" stroke="#C5B295" stroke-width="0.5" stroke-miterlimit="10" x1="70.456" y1="19.97" x2="57.382" y2="19.97"/>
	
		<line clip-path="url(#SVGID_2_)" fill="none" stroke="#C5B295" stroke-width="0.5" stroke-miterlimit="10" x1="70.456" y1="22.964" x2="57.382" y2="22.964"/>
	<polyline clip-path="url(#SVGID_2_)" fill="none" stroke="#C5B295" stroke-width="0.5" stroke-miterlimit="10" points="
		57.304,10.527 57.304,25.958 57.382,25.958 70.456,25.958 	"/>
	<polyline clip-path="url(#SVGID_2_)" fill="none" stroke="#C5B295" stroke-width="0.5" stroke-miterlimit="10" points="
		0.25,26.855 9.574,26.855 9.574,6.269 	"/>
	
		<line clip-path="url(#SVGID_2_)" fill="none" stroke="#C5B295" stroke-width="0.5" stroke-miterlimit="10" x1="9.56" y1="16.49" x2="0.25" y2="16.49"/>
	
		<line clip-path="url(#SVGID_2_)" fill="none" stroke="#C5B295" stroke-width="0.5" stroke-miterlimit="10" x1="9.56" y1="23.907" x2="0.25" y2="23.907"/>
	
		<rect x="18.726" y="19.914" clip-path="url(#SVGID_2_)" fill="none" stroke="#C5B295" stroke-width="0.5" stroke-miterlimit="10" width="19.128" height="12.105"/>
	<path clip-path="url(#SVGID_2_)" fill="none" stroke="#C5B295" stroke-width="0.5" stroke-miterlimit="10" d="M54.271,25.967
		c0-3.138-2.555-5.692-5.692-5.692h-4.642c-0.381,0-0.691,0.311-0.691,0.693c0,0.383,0.31,0.691,0.691,0.691h4.642
		c2.376,0,4.307,1.932,4.307,4.308c0,2.374-1.931,4.305-4.307,4.305h-4.642c-0.381,0-0.691,0.31-0.691,0.692
		c0,0.384,0.31,0.692,0.691,0.692h4.642C51.715,31.657,54.271,29.104,54.271,25.967z"/>
	
		<line clip-path="url(#SVGID_2_)" fill="none" stroke="#C5B295" stroke-width="0.5" stroke-miterlimit="10" x1="51.169" y1="25.967" x2="54.271" y2="25.967"/>
	<path clip-path="url(#SVGID_2_)" fill="none" stroke="#C5B295" stroke-width="0.5" stroke-miterlimit="10" d="M51.098,27.052
		l1.466,0.314c0,0,0.852,0.23,1.218,0.903"/>
	<path clip-path="url(#SVGID_2_)" fill="none" stroke="#C5B295" stroke-width="0.5" stroke-miterlimit="10" d="M51.098,24.808
		l1.466-0.316c0,0,0.793-0.287,1.156-0.961"/>
	<path clip-path="url(#SVGID_2_)" fill="none" stroke="#C5B295" stroke-width="0.5" stroke-miterlimit="10" d="M49.091,30.242
		c1.147,0,2.078-1.915,2.078-4.274c0-2.361-0.931-4.275-2.078-4.275"/>
	<path clip-path="url(#SVGID_2_)" fill="none" stroke="#C5B295" stroke-width="0.5" stroke-miterlimit="10" d="M46.552,21.658h-2.33
		c-0.543,0-0.982,0.44-0.982,0.981l0.005,6.645c0,0.542,0.441,0.981,0.982,0.981h2.33"/>
	
		<circle clip-path="url(#SVGID_2_)" fill="none" stroke="#C5B295" stroke-width="0.5" stroke-miterlimit="10" cx="46.98" cy="25.969" r="0.295"/>
	
		<line clip-path="url(#SVGID_2_)" fill="none" stroke="#C5B295" stroke-width="0.5" stroke-miterlimit="10" x1="47.359" y1="26.347" x2="47.844" y2="26.833"/>
	
		<line clip-path="url(#SVGID_2_)" fill="none" stroke="#C5B295" stroke-width="0.5" stroke-miterlimit="10" x1="46.11" y1="25.098" x2="46.596" y2="25.585"/>
	
		<line clip-path="url(#SVGID_2_)" fill="none" stroke="#C5B295" stroke-width="0.5" stroke-miterlimit="10" x1="46.597" y1="26.347" x2="46.111" y2="26.835"/>
	
		<line clip-path="url(#SVGID_2_)" fill="none" stroke="#C5B295" stroke-width="0.5" stroke-miterlimit="10" x1="47.846" y1="25.098" x2="47.36" y2="25.585"/>
	
		<circle clip-path="url(#SVGID_2_)" fill="none" stroke="#C5B295" stroke-width="0.5" stroke-miterlimit="10" cx="49.248" cy="15.732" r="2.438"/>
	
		<line clip-path="url(#SVGID_2_)" fill="none" stroke="#C5B295" stroke-width="0.5" stroke-miterlimit="10" x1="49.248" y1="13.294" x2="49.248" y2="18.17"/>
	
		<line clip-path="url(#SVGID_2_)" fill="none" stroke="#C5B295" stroke-width="0.5" stroke-miterlimit="10" x1="46.81" y1="15.732" x2="51.687" y2="15.732"/>
	<path clip-path="url(#SVGID_2_)" fill="none" stroke="#C5B295" stroke-width="0.5" stroke-miterlimit="10" d="M210.036,11.087
		c0,0.287-0.232,0.52-0.521,0.52h-1.986c-0.287,0-0.52-0.233-0.52-0.52V3.563c0-0.287,0.232-0.522,0.52-0.522h1.986
		c0.288,0,0.521,0.235,0.521,0.522V11.087z"/>
	
		<ellipse clip-path="url(#SVGID_2_)" fill="none" stroke="#C5B295" stroke-width="0.5" stroke-miterlimit="10" cx="215.497" cy="7.326" rx="4.38" ry="3.627"/>
	
		<line clip-path="url(#SVGID_2_)" fill="none" stroke="#C5B295" stroke-width="0.5" stroke-miterlimit="10" x1="212.689" y1="10.113" x2="210.037" y2="10.113"/>
	
		<line clip-path="url(#SVGID_2_)" fill="none" stroke="#C5B295" stroke-width="0.5" stroke-miterlimit="10" x1="212.689" y1="4.537" x2="210.037" y2="4.537"/>
	
		<circle clip-path="url(#SVGID_2_)" fill="none" stroke="#C5B295" stroke-width="0.5" stroke-miterlimit="10" cx="222.358" cy="40.283" r="2.473"/>
	
		<line clip-path="url(#SVGID_2_)" fill="none" stroke="#C5B295" stroke-width="0.5" stroke-miterlimit="10" x1="222.358" y1="40.712" x2="222.358" y2="44.708"/>
	
		<rect x="247.883" y="36.863" clip-path="url(#SVGID_2_)" fill="none" stroke="#C5B295" stroke-width="0.5" stroke-miterlimit="10" width="4.217" height="4.218"/>
	
		<line clip-path="url(#SVGID_2_)" fill="none" stroke="#C5B295" stroke-width="0.5" stroke-miterlimit="10" x1="254.262" y1="38.971" x2="250.59" y2="38.971"/>
	
		<line clip-path="url(#SVGID_2_)" fill="none" stroke="#C5B295" stroke-width="0.5" stroke-miterlimit="10" x1="229.56" y1="25.707" x2="254.262" y2="25.707"/>
	<path clip-path="url(#SVGID_2_)" fill="none" stroke="#C5B295" stroke-width="0.5" stroke-miterlimit="10" d="M143.569,10.675
		c0-0.736,0.6-1.332,1.332-1.332c0.736,0,1.334,0.596,1.334,1.332v0.098c0.001,0.021,0,0,0,0.022v0.935
		c0,0.369-0.301,0.671-0.673,0.671h-1.32c-0.371,0-0.673-0.302-0.673-0.671v-0.935v-0.098V10.675z"/>
	<path clip-path="url(#SVGID_2_)" fill="none" stroke="#C5B295" stroke-width="0.5" stroke-miterlimit="10" d="M145.927,12.293
		v0.937c0,0.549-0.447,0.996-0.999,0.996c-0.549,0-0.996-0.447-0.996-0.996v-0.937"/>
	<path clip-path="url(#SVGID_2_)" fill="none" stroke="#C5B295" stroke-width="0.5" stroke-miterlimit="10" d="M146.959,10.675
		c0-0.736,0.598-1.332,1.332-1.332c0.736,0,1.335,0.596,1.335,1.332v0.098v0.022v0.935c0,0.369-0.303,0.671-0.675,0.671h-1.32
		c-0.371,0-0.672-0.302-0.672-0.671v-0.935v-0.098V10.675z"/>
	<path clip-path="url(#SVGID_2_)" fill="none" stroke="#C5B295" stroke-width="0.5" stroke-miterlimit="10" d="M149.319,12.293
		v0.937c0,0.549-0.448,0.996-0.998,0.996c-0.551,0-0.999-0.447-0.999-0.996v-0.937"/>
	<polyline clip-path="url(#SVGID_2_)" fill="none" stroke="#C5B295" stroke-width="0.5" stroke-miterlimit="10" points="
		166.169,0.25 166.169,2.125 168.124,2.125 169.547,4.146 145.194,4.146 146.617,2.125 149.244,2.125 149.244,0.25 	"/>
	
		<line clip-path="url(#SVGID_2_)" fill="none" stroke="#C5B295" stroke-width="0.5" stroke-miterlimit="10" x1="148.536" y1="2.125" x2="166.206" y2="2.125"/>
	<path clip-path="url(#SVGID_2_)" fill="none" stroke="#C5B295" stroke-width="0.5" stroke-miterlimit="10" d="M241.156,24.38
		h-7.616c-1.405,0-2.544-1.139-2.544-2.542V18.86c0-1.404,1.139-2.542,2.544-2.542h7.616h1.51h7.617
		c1.402,0,2.543,1.138,2.543,2.542v2.978c0,1.403-1.141,2.542-2.543,2.542h-7.617H241.156z"/>
	
		<line clip-path="url(#SVGID_2_)" fill="none" stroke="#C5B295" stroke-width="0.5" stroke-miterlimit="10" x1="246.626" y1="18.107" x2="246.626" y2="15.024"/>
	
		<circle clip-path="url(#SVGID_2_)" fill="none" stroke="#C5B295" stroke-width="0.5" stroke-miterlimit="10" cx="234.705" cy="20.35" r="0.968"/>
	
		<circle clip-path="url(#SVGID_2_)" fill="none" stroke="#C5B295" stroke-width="0.5" stroke-miterlimit="10" cx="234.705" cy="20.35" r="0.311"/>
	<path clip-path="url(#SVGID_2_)" fill="#C5B295" d="M237.877,21.74c0,0.121-0.1,0.221-0.221,0.221c-0.122,0-0.22-0.1-0.22-0.221
		s0.098-0.222,0.22-0.222C237.778,21.518,237.877,21.619,237.877,21.74"/>
	<path clip-path="url(#SVGID_2_)" fill="#C5B295" d="M237.877,20.35c0,0.122-0.1,0.221-0.221,0.221c-0.122,0-0.22-0.099-0.22-0.221
		s0.098-0.222,0.22-0.222C237.778,20.128,237.877,20.228,237.877,20.35"/>
	<path clip-path="url(#SVGID_2_)" fill="#C5B295" d="M237.877,18.96c0,0.121-0.1,0.221-0.221,0.221c-0.122,0-0.22-0.1-0.22-0.221
		c0-0.123,0.098-0.222,0.22-0.222C237.778,18.738,237.877,18.837,237.877,18.96"/>
	<path clip-path="url(#SVGID_2_)" fill="#C5B295" d="M239.031,21.74c0,0.121-0.1,0.221-0.221,0.221c-0.122,0-0.219-0.1-0.219-0.221
		s0.097-0.222,0.219-0.222C238.931,21.518,239.031,21.619,239.031,21.74"/>
	<path clip-path="url(#SVGID_2_)" fill="#C5B295" d="M239.031,20.35c0,0.122-0.1,0.221-0.221,0.221
		c-0.122,0-0.219-0.099-0.219-0.221s0.097-0.222,0.219-0.222C238.931,20.128,239.031,20.228,239.031,20.35"/>
	<path clip-path="url(#SVGID_2_)" fill="#C5B295" d="M239.031,18.96c0,0.121-0.1,0.221-0.221,0.221c-0.122,0-0.219-0.1-0.219-0.221
		c0-0.123,0.097-0.222,0.219-0.222C238.931,18.738,239.031,18.837,239.031,18.96"/>
	<path clip-path="url(#SVGID_2_)" fill="#C5B295" d="M240.185,21.74c0,0.121-0.1,0.221-0.222,0.221s-0.22-0.1-0.22-0.221
		s0.098-0.222,0.22-0.222S240.185,21.619,240.185,21.74"/>
	<path clip-path="url(#SVGID_2_)" fill="#C5B295" d="M240.185,20.35c0,0.122-0.1,0.221-0.222,0.221s-0.22-0.099-0.22-0.221
		s0.098-0.222,0.22-0.222S240.185,20.228,240.185,20.35"/>
	<path clip-path="url(#SVGID_2_)" fill="#C5B295" d="M240.185,18.96c0,0.121-0.1,0.221-0.222,0.221s-0.22-0.1-0.22-0.221
		c0-0.123,0.098-0.222,0.22-0.222S240.185,18.837,240.185,18.96"/>
	<path clip-path="url(#SVGID_2_)" fill="none" stroke="#C5B295" stroke-width="0.5" stroke-miterlimit="10" d="M185.63,41.174
		c-0.099-0.146-0.155-0.322-0.155-0.512l-0.924-4.691c0-0.511,0.414-0.924,0.924-0.924h6.503c0.509,0,0.923,0.413,0.923,0.924
		l-0.923,4.691c0,0.181-0.052,0.349-0.143,0.49"/>
	<path clip-path="url(#SVGID_2_)" fill="none" stroke="#C5B295" stroke-width="0.5" stroke-miterlimit="10" d="M185.302,41.656
		c-0.046,0.14-0.103,0.446,0.268,0.446h6.349c0.37,0,0.313-0.31,0.268-0.448c-0.388-0.808-1.776-1.406-3.442-1.406
		C187.076,40.248,185.688,40.849,185.302,41.656z"/>
	<path clip-path="url(#SVGID_2_)" fill="none" stroke="#C5B295" stroke-width="0.5" stroke-miterlimit="10" d="M201.556,31.12
		c-0.146,0.095-0.316,0.15-0.504,0.15l-4.691,0.925c-0.511,0-0.924-0.414-0.924-0.925v-6.503c0-0.509,0.413-0.922,0.924-0.922
		l4.691,0.922c0.128,0,0.249,0.027,0.36,0.072c0.055,0.024,0.108,0.053,0.158,0.087"/>
	<path clip-path="url(#SVGID_2_)" fill="none" stroke="#C5B295" stroke-width="0.5" stroke-miterlimit="10" d="M202.044,31.444
		c0.142,0.044,0.448,0.103,0.448-0.269v-6.349c0-0.371-0.31-0.312-0.449-0.267c-0.807,0.386-1.405,1.774-1.405,3.441
		C200.638,29.669,201.239,31.058,202.044,31.444z"/>
	
		<circle clip-path="url(#SVGID_2_)" fill="none" stroke="#C5B295" stroke-width="0.5" stroke-miterlimit="10" cx="188.726" cy="28.019" r="5.449"/>
	
		<circle clip-path="url(#SVGID_2_)" fill="none" stroke="#C5B295" stroke-width="0.5" stroke-miterlimit="10" cx="189.828" cy="25.345" r="0.87"/>
	
		<line clip-path="url(#SVGID_2_)" fill="none" stroke="#C5B295" stroke-width="0.5" stroke-miterlimit="10" x1="190.027" y1="24.498" x2="190.15" y2="23.982"/>
	<polygon clip-path="url(#SVGID_2_)" fill="none" stroke="#C5B295" stroke-width="0.5" stroke-miterlimit="10" points="
		186.526,31.253 191.258,30.097 190.451,26.779 186.91,27.644 186.006,29.127 	"/>
	<polyline clip-path="url(#SVGID_2_)" fill="none" stroke="#C5B295" stroke-width="0.5" stroke-miterlimit="10" points="
		186.91,27.644 187.2,28.837 186.007,29.127 	"/>
	<path clip-path="url(#SVGID_2_)" fill="none" stroke="#C5B295" stroke-width="0.5" stroke-miterlimit="10" d="M165.343,36.551
		h-3.302c-0.437,0-0.793,0.354-0.793,0.791v1.63c0,0.439,0.356,0.794,0.793,0.794h4.812c0.437,0,0.793-0.354,0.793-0.794v-1.756"/>
	<path clip-path="url(#SVGID_2_)" fill="none" stroke="#C5B295" stroke-width="0.5" stroke-miterlimit="10" d="M168.66,37.235v1.737
		c0,0.439,0.354,0.794,0.793,0.794h4.811c0.437,0,0.792-0.354,0.792-0.794v-1.737"/>
	<path clip-path="url(#SVGID_2_)" fill="none" stroke="#C5B295" stroke-width="0.5" stroke-miterlimit="10" d="M176.68,35.265
		h-10.672v1.97h9.879c0.438,0,0.793-0.355,0.793-0.793V35.265z"/>
	<path clip-path="url(#SVGID_2_)" fill="none" stroke="#C5B295" stroke-width="0.5" stroke-miterlimit="10" d="M159.624,30.832
		v-0.023h5.593c0.437,0,0.793,0.354,0.793,0.792v5.616L159.624,30.832z"/>
	<path clip-path="url(#SVGID_2_)" fill="none" stroke="#C5B295" stroke-width="0.5" stroke-miterlimit="10" d="M143.79,36.551
		h-3.302c-0.437,0-0.793,0.354-0.793,0.791v1.63c0,0.439,0.356,0.794,0.793,0.794h4.811c0.438,0,0.793-0.354,0.793-0.794v-1.756"/>
	<path clip-path="url(#SVGID_2_)" fill="none" stroke="#C5B295" stroke-width="0.5" stroke-miterlimit="10" d="M147.105,37.235
		v1.737c0,0.439,0.354,0.794,0.792,0.794h4.811c0.437,0,0.793-0.354,0.793-0.794v-1.737"/>
	<path clip-path="url(#SVGID_2_)" fill="none" stroke="#C5B295" stroke-width="0.5" stroke-miterlimit="10" d="M155.125,35.265
		h-10.672v1.97h9.879c0.438,0,0.793-0.355,0.793-0.793V35.265z"/>
	<path clip-path="url(#SVGID_2_)" fill="none" stroke="#C5B295" stroke-width="0.5" stroke-miterlimit="10" d="M138.07,30.832
		v-0.023h5.592c0.437,0,0.793,0.354,0.793,0.792v5.616L138.07,30.832z"/>
	
		<line clip-path="url(#SVGID_2_)" fill="none" stroke="#C5B295" stroke-width="0.5" stroke-miterlimit="10" x1="214.198" y1="25.707" x2="214.198" y2="14.993"/>
	
		<line clip-path="url(#SVGID_2_)" fill="none" stroke="#C5B295" stroke-width="0.5" stroke-miterlimit="10" x1="211.203" y1="25.707" x2="211.203" y2="14.993"/>
	
		<line clip-path="url(#SVGID_2_)" fill="none" stroke="#C5B295" stroke-width="0.5" stroke-miterlimit="10" x1="208.21" y1="25.707" x2="208.21" y2="14.993"/>
	<path clip-path="url(#SVGID_2_)" fill="none" stroke="#C5B295" stroke-width="0.5" stroke-miterlimit="10" d="M0.276,29.23
		c7.035,0,12.737,5.703,12.737,12.735"/>
	
		<line clip-path="url(#SVGID_2_)" fill="none" stroke="#C5B295" stroke-width="0.5" stroke-miterlimit="10" x1="14.076" y1="41.984" x2="0.25" y2="41.984"/>
</g>
</svg>
