<?xml version="1.0" encoding="utf-8"?>
<!-- Generator: Adobe Illustrator 14.0.0, SVG Export Plug-In . SVG Version: 6.00 Build 43363)  -->
<!DOCTYPE svg PUBLIC "-//W3C//DTD SVG 1.1//EN" "http://www.w3.org/Graphics/SVG/1.1/DTD/svg11.dtd">
<svg version="1.1" id="レイヤー_1" xmlns="http://www.w3.org/2000/svg" xmlns:xlink="http://www.w3.org/1999/xlink" x="0px"
	 y="0px" width="150.477px" height="110.589px" viewBox="0 0 150.477 110.589" enable-background="new 0 0 150.477 110.589"
	 xml:space="preserve">
<g>
	<defs>
		<rect id="SVGID_1_" y="0" width="150.477" height="110.589"/>
	</defs>
	<clipPath id="SVGID_2_">
		<use xlink:href="#SVGID_1_"  overflow="visible"/>
	</clipPath>
	<polyline clip-path="url(#SVGID_2_)" fill="none" stroke="#C5B295" stroke-width="0.5" stroke-miterlimit="10" points="
		122.691,105.186 148.691,105.186 148.691,0.25 0.25,0.25 0.25,105.186 27.039,105.186 	"/>
	<polyline clip-path="url(#SVGID_2_)" fill="none" stroke="#C5B295" stroke-width="0.5" stroke-miterlimit="10" points="
		144.389,0.25 144.389,4.883 78.011,4.883 78.011,0.25 	"/>
</g>
<polyline fill="none" stroke="#C5B295" stroke-width="0.5" stroke-miterlimit="10" points="89.691,4.883 89.691,72.741 
	144.389,72.741 144.389,4.883 "/>
<g>
	<defs>
		<rect id="SVGID_3_" y="0" width="150.477" height="110.589"/>
	</defs>
	<clipPath id="SVGID_4_">
		<use xlink:href="#SVGID_3_"  overflow="visible"/>
	</clipPath>
	<polyline clip-path="url(#SVGID_4_)" fill="none" stroke="#C5B295" stroke-width="0.5" stroke-miterlimit="10" points="
		59.124,42.959 59.124,72.662 0.25,72.662 	"/>
	<polyline clip-path="url(#SVGID_4_)" fill="none" stroke="#C5B295" stroke-width="0.5" stroke-miterlimit="10" points="
		34.794,0.25 34.794,43.289 0.25,43.289 	"/>
	
		<line clip-path="url(#SVGID_4_)" fill="none" stroke="#C5B295" stroke-width="0.5" stroke-miterlimit="10" x1="146.908" y1="43.289" x2="150.477" y2="43.289"/>
	
		<line clip-path="url(#SVGID_4_)" fill="none" stroke="#C5B295" stroke-width="0.5" stroke-miterlimit="10" x1="146.908" y1="18.731" x2="150.477" y2="18.731"/>
</g>
<line fill="none" stroke="#C5B295" stroke-width="0.5" stroke-miterlimit="10" x1="57.34" y1="43.289" x2="60.907" y2="43.289"/>
<line fill="none" stroke="#C5B295" stroke-width="0.5" stroke-miterlimit="10" x1="57.34" y1="8.354" x2="60.907" y2="8.354"/>
<line fill="none" stroke="#C5B295" stroke-width="0.5" stroke-miterlimit="10" x1="32.992" y1="40.548" x2="36.561" y2="40.548"/>
<line fill="none" stroke="#C5B295" stroke-width="0.5" stroke-miterlimit="10" x1="32.992" y1="18.629" x2="36.561" y2="18.629"/>
<line fill="none" stroke="#C5B295" stroke-width="0.5" stroke-miterlimit="10" x1="30.903" y1="74.525" x2="30.903" y2="70.958"/>
<line fill="none" stroke="#C5B295" stroke-width="0.5" stroke-miterlimit="10" x1="55.012" y1="74.525" x2="55.012" y2="70.958"/>
<g>
	<defs>
		<rect id="SVGID_5_" y="0" width="150.477" height="110.589"/>
	</defs>
	<clipPath id="SVGID_6_">
		<use xlink:href="#SVGID_5_"  overflow="visible"/>
	</clipPath>
	<polyline clip-path="url(#SVGID_6_)" fill="none" stroke="#C5B295" stroke-width="0.5" stroke-miterlimit="10" points="
		104.689,94.664 122.691,94.664 122.691,110.339 99.2,110.339 	"/>
	<polyline clip-path="url(#SVGID_6_)" fill="none" stroke="#C5B295" stroke-width="0.5" stroke-miterlimit="10" points="
		62.806,110.339 45.021,110.339 45.021,94.664 62.806,94.664 	"/>
	<polyline clip-path="url(#SVGID_6_)" fill="none" stroke="#C5B295" stroke-width="0.5" stroke-miterlimit="10" points="
		45.021,110.339 27.039,110.339 27.039,94.664 45.021,94.664 	"/>
	<path clip-path="url(#SVGID_6_)" fill="none" stroke="#C5B295" stroke-width="0.5" stroke-miterlimit="10" d="M9.012,65.321
		c0,0.562-0.455,1.016-1.018,1.016H4.118c-0.562,0-1.017-0.454-1.017-1.016v-14.69c0-0.561,0.455-1.018,1.017-1.018h3.876
		c0.563,0,1.018,0.457,1.018,1.018V65.321z"/>
	<path clip-path="url(#SVGID_6_)" fill="none" stroke="#C5B295" stroke-width="0.5" stroke-miterlimit="10" d="M28.229,57.978
		c0,3.909-3.829,7.079-8.553,7.079c-4.722,0-8.551-3.17-8.551-7.079c0-3.913,3.829-7.083,8.551-7.083
		C24.4,50.895,28.229,54.065,28.229,57.978z"/>
	
		<line clip-path="url(#SVGID_6_)" fill="none" stroke="#C5B295" stroke-width="0.5" stroke-miterlimit="10" x1="14.19" y1="63.42" x2="9.012" y2="63.42"/>
	
		<line clip-path="url(#SVGID_6_)" fill="none" stroke="#C5B295" stroke-width="0.5" stroke-miterlimit="10" x1="14.19" y1="52.534" x2="9.012" y2="52.534"/>
	<path clip-path="url(#SVGID_6_)" fill="none" stroke="#C5B295" stroke-width="0.5" stroke-miterlimit="10" d="M0.295,101.346
		c13.73,0,24.862-11.136,24.862-24.863"/>
	
		<line clip-path="url(#SVGID_6_)" fill="none" stroke="#C5B295" stroke-width="0.5" stroke-miterlimit="10" x1="27.235" y1="76.446" x2="0.24" y2="76.446"/>
	
		<rect x="13.404" y="4.469" clip-path="url(#SVGID_6_)" fill="none" stroke="#C5B295" stroke-width="0.5" stroke-miterlimit="10" width="8.234" height="8.235"/>
	
		<line clip-path="url(#SVGID_6_)" fill="none" stroke="#C5B295" stroke-width="0.5" stroke-miterlimit="10" x1="17.522" y1="0.25" x2="17.522" y2="7.415"/>
	<path clip-path="url(#SVGID_6_)" fill="none" stroke="#C5B295" stroke-width="0.5" stroke-miterlimit="10" d="M56.01,0.277v12.412
		c0,2.289-1.855,4.145-4.143,4.145h-9.818c-2.288,0-4.143-1.856-4.143-4.145V0.277"/>
	<path clip-path="url(#SVGID_6_)" fill="none" stroke="#C5B295" stroke-width="0.5" stroke-miterlimit="10" d="M44.905,13.995
		c-2.49,0-4.509-2.02-4.509-4.509c0-2.491,2.019-4.511,4.509-4.511h4.106c2.492,0,4.511,2.02,4.511,4.511
		c0,2.489-2.019,4.509-4.511,4.509H44.905z"/>
	
		<line clip-path="url(#SVGID_6_)" fill="none" stroke="#C5B295" stroke-width="0.5" stroke-miterlimit="10" x1="42.646" y1="2.264" x2="51.271" y2="2.264"/>
	
		<line clip-path="url(#SVGID_6_)" fill="none" stroke="#C5B295" stroke-width="0.5" stroke-miterlimit="10" x1="46.959" y1="2.264" x2="46.959" y2="9.456"/>
	<path clip-path="url(#SVGID_6_)" fill="none" stroke="#C5B295" stroke-width="0.5" stroke-miterlimit="10" d="M126.047,18.783
		h10.587c1.403,0,2.542-1.139,2.542-2.537v-5.232c0-1.405-1.139-2.544-2.542-2.544h-15.428c-1.403,0-2.54,1.139-2.54,2.544v5.634"/>
	<path clip-path="url(#SVGID_6_)" fill="none" stroke="#C5B295" stroke-width="0.5" stroke-miterlimit="10" d="M115.415,16.587
		v-5.573c0-1.406-1.14-2.545-2.543-2.545H97.443c-1.402,0-2.539,1.139-2.539,2.545v5.573"/>
	<path clip-path="url(#SVGID_6_)" fill="none" stroke="#C5B295" stroke-width="0.5" stroke-miterlimit="10" d="M89.691,22.906
		h34.222v-6.318H92.232c-1.403,0-2.541,1.139-2.541,2.544V22.906z"/>
	<path clip-path="url(#SVGID_6_)" fill="none" stroke="#C5B295" stroke-width="0.5" stroke-miterlimit="10" d="M144.389,37.124V37.2
		h-17.934c-1.404,0-2.542-1.138-2.542-2.541V16.647L144.389,37.124z"/>
	<path clip-path="url(#SVGID_6_)" fill="none" stroke="#C5B295" stroke-width="0.5" stroke-miterlimit="10" d="M103.526,96.218
		c0-0.834-0.678-1.511-1.511-1.511l-10.104,0.007c-0.836,0-1.512,0.679-1.512,1.515v1.086"/>
	<path clip-path="url(#SVGID_6_)" fill="none" stroke="#C5B295" stroke-width="0.5" stroke-miterlimit="10" d="M90.399,97.306
		v-1.088c0-0.834-0.679-1.511-1.511-1.511l-10.245,0.007c-0.833,0-1.512,0.679-1.512,1.515v1.086"/>
	<path clip-path="url(#SVGID_6_)" fill="none" stroke="#C5B295" stroke-width="0.5" stroke-miterlimit="10" d="M77.132,97.306
		v-1.088c0-0.834-0.678-1.511-1.512-1.511l-10.093,0.007c-0.837,0-1.513,0.679-1.513,1.515"/>
	
		<line clip-path="url(#SVGID_6_)" fill="none" stroke="#C5B295" stroke-width="0.5" stroke-miterlimit="10" x1="77.192" y1="102.632" x2="77.192" y2="104.748"/>
	
		<line clip-path="url(#SVGID_6_)" fill="none" stroke="#C5B295" stroke-width="0.5" stroke-miterlimit="10" x1="90.436" y1="102.713" x2="90.436" y2="104.748"/>
	
		<circle clip-path="url(#SVGID_6_)" fill="none" stroke="#C5B295" stroke-width="0.5" stroke-miterlimit="10" cx="83.798" cy="101.388" r="0.454"/>
	
		<line clip-path="url(#SVGID_6_)" fill="none" stroke="#C5B295" stroke-width="0.5" stroke-miterlimit="10" x1="83.214" y1="100.801" x2="82.465" y2="100.053"/>
	
		<line clip-path="url(#SVGID_6_)" fill="none" stroke="#C5B295" stroke-width="0.5" stroke-miterlimit="10" x1="85.14" y1="102.728" x2="84.39" y2="101.978"/>
	
		<line clip-path="url(#SVGID_6_)" fill="none" stroke="#C5B295" stroke-width="0.5" stroke-miterlimit="10" x1="84.39" y1="100.801" x2="85.14" y2="100.051"/>
	
		<line clip-path="url(#SVGID_6_)" fill="none" stroke="#C5B295" stroke-width="0.5" stroke-miterlimit="10" x1="82.465" y1="102.728" x2="83.213" y2="101.978"/>
	
		<circle clip-path="url(#SVGID_6_)" fill="none" stroke="#C5B295" stroke-width="0.5" stroke-miterlimit="10" cx="70.551" cy="101.388" r="0.455"/>
	
		<line clip-path="url(#SVGID_6_)" fill="none" stroke="#C5B295" stroke-width="0.5" stroke-miterlimit="10" x1="69.966" y1="100.801" x2="69.217" y2="100.053"/>
	
		<line clip-path="url(#SVGID_6_)" fill="none" stroke="#C5B295" stroke-width="0.5" stroke-miterlimit="10" x1="71.891" y1="102.728" x2="71.141" y2="101.978"/>
	
		<line clip-path="url(#SVGID_6_)" fill="none" stroke="#C5B295" stroke-width="0.5" stroke-miterlimit="10" x1="71.142" y1="100.801" x2="71.892" y2="100.051"/>
	
		<line clip-path="url(#SVGID_6_)" fill="none" stroke="#C5B295" stroke-width="0.5" stroke-miterlimit="10" x1="69.215" y1="102.728" x2="69.965" y2="101.978"/>
	<path clip-path="url(#SVGID_6_)" fill="none" stroke="#C5B295" stroke-width="0.5" stroke-miterlimit="10" d="M96.639,101.709
		c0.178,0.176,0.465,0.176,0.643,0c0.174-0.179,0.177-0.467,0-0.644c-0.178-0.179-0.465-0.178-0.643,0
		C96.46,101.245,96.46,101.531,96.639,101.709z"/>
	
		<line clip-path="url(#SVGID_6_)" fill="none" stroke="#C5B295" stroke-width="0.5" stroke-miterlimit="10" x1="96.375" y1="100.801" x2="95.625" y2="100.053"/>
	
		<line clip-path="url(#SVGID_6_)" fill="none" stroke="#C5B295" stroke-width="0.5" stroke-miterlimit="10" x1="98.301" y1="102.728" x2="97.55" y2="101.978"/>
	
		<line clip-path="url(#SVGID_6_)" fill="none" stroke="#C5B295" stroke-width="0.5" stroke-miterlimit="10" x1="97.55" y1="100.801" x2="98.301" y2="100.051"/>
	
		<line clip-path="url(#SVGID_6_)" fill="none" stroke="#C5B295" stroke-width="0.5" stroke-miterlimit="10" x1="95.625" y1="102.728" x2="96.375" y2="101.978"/>
	<path clip-path="url(#SVGID_6_)" fill="none" stroke="#C5B295" stroke-width="0.5" stroke-miterlimit="10" d="M105.798,110.339
		V95.816V95.81c0-0.626-0.508-1.135-1.136-1.135c-0.627,0-1.135,0.509-1.135,1.135v8.938"/>
	<path clip-path="url(#SVGID_6_)" fill="none" stroke="#C5B295" stroke-width="0.5" stroke-miterlimit="10" d="M71.619,108.068
		h-7.605V95.816V95.81c0-0.626-0.509-1.135-1.136-1.135c-0.626,0-1.136,0.509-1.136,1.135v13.394c0,0.627,0.508,1.135,1.135,1.135
		h8.742"/>
	
		<line clip-path="url(#SVGID_6_)" fill="none" stroke="#C5B295" stroke-width="0.5" stroke-miterlimit="10" x1="59.124" y1="42.959" x2="59.124" y2="0.238"/>
	<path clip-path="url(#SVGID_6_)" fill="none" stroke="#C5B295" stroke-width="0.5" stroke-miterlimit="10" d="M142.409,82.821
		c0,1.198-0.974,2.171-2.171,2.171c-1.199,0-2.173-0.973-2.173-2.171v-0.16c-0.003-0.036,0,0,0-0.036v-1.522
		c0-0.603,0.49-1.094,1.095-1.094h2.152c0.605,0,1.097,0.491,1.097,1.094v1.522c0,0.036,0.001,0.129,0,0.159V82.821z"/>
	<path clip-path="url(#SVGID_6_)" fill="none" stroke="#C5B295" stroke-width="0.5" stroke-miterlimit="10" d="M138.566,80.184
		v-1.525c0-0.896,0.729-1.625,1.627-1.625c0.895,0,1.625,0.729,1.625,1.625v1.525"/>
	<path clip-path="url(#SVGID_6_)" fill="none" stroke="#C5B295" stroke-width="0.5" stroke-miterlimit="10" d="M136.885,82.821
		c0,1.198-0.973,2.171-2.172,2.171s-2.174-0.973-2.174-2.171v-0.16v-0.036v-1.522c0-0.603,0.49-1.094,1.097-1.094h2.154
		c0.604,0,1.095,0.491,1.095,1.094v1.522v0.159V82.821z"/>
	<path clip-path="url(#SVGID_6_)" fill="none" stroke="#C5B295" stroke-width="0.5" stroke-miterlimit="10" d="M133.041,80.184
		v-1.525c0-0.896,0.73-1.625,1.626-1.625c0.895,0,1.627,0.729,1.627,1.625v1.525"/>
	<polygon clip-path="url(#SVGID_6_)" fill="none" stroke="#C5B295" stroke-width="0.5" stroke-miterlimit="10" points="
		103.48,108.042 99.2,108.042 99.2,110.339 71.619,110.339 71.619,108.042 68.437,108.042 66.119,104.748 105.798,104.748 	"/>
	
		<line clip-path="url(#SVGID_6_)" fill="none" stroke="#C5B295" stroke-width="0.5" stroke-miterlimit="10" x1="100.41" y1="108.042" x2="71.618" y2="108.042"/>
</g>
</svg>
