<?xml version="1.0" encoding="utf-8"?>
<!-- Generator: Adobe Illustrator 14.0.0, SVG Export Plug-In . SVG Version: 6.00 Build 43363)  -->
<!DOCTYPE svg PUBLIC "-//W3C//DTD SVG 1.1//EN" "http://www.w3.org/Graphics/SVG/1.1/DTD/svg11.dtd">
<svg version="1.1" id="test" xmlns="http://www.w3.org/2000/svg" xmlns:xlink="http://www.w3.org/1999/xlink" x="0px"
	 y="0px" width="162.648px" height="66.205px" viewBox="0 0 162.648 66.205" enable-background="new 0 0 162.648 66.205"
	 xml:space="preserve">
<polygon fill="#CAB493" points="119.458,48.954 111.414,57.035 108.882,57.035 108.882,48.954 107.977,48.954 107.977,66.07 
	108.882,66.07 108.882,57.894 111.401,57.894 116.732,63.017 117.48,62.542 112.135,57.415 120.644,48.954 "/>
<path fill="#CAB493" d="M134.068,49.884l4.317,10.028h-8.645L134.068,49.884z M133.532,48.955l-7.384,17.114h0.953l2.274-5.293
	h9.387l1.402,3.262l0.764-0.487l-6.297-14.596H133.532z"/>
<path fill="#CAB493" d="M49.025,49.884l4.316,10.028h-8.643L49.025,49.884z M48.488,48.955l-7.385,17.114h0.954l2.274-5.293h9.39
	l1.371,3.193l0.764-0.483l-6.268-14.531H48.488z"/>
<path fill="#CAB493" d="M91.107,49.884l4.317,10.028h-8.646L91.107,49.884z M90.569,48.955l-7.384,17.114h0.954l2.274-5.293h9.388
	l1.037,2.409l0.762-0.485L91.67,48.955H90.569z"/>
<g>
	<defs>
		<rect id="SVGID_1_" width="162.648" height="66.205"/>
	</defs>
	<clipPath id="SVGID_2_">
		<use xlink:href="#SVGID_1_"  overflow="visible"/>
	</clipPath>
	<path clip-path="url(#SVGID_2_)" fill="#CAB493" d="M70.36,57.157l-2.188-0.232c-3.241-0.342-4.476-1.6-4.476-3.422
		c0-2.408,2.227-3.813,5.184-3.813c2.494,0,4.341,0.829,5.623,1.77l0.463-0.729c-1.356-1.018-3.346-1.91-6.074-1.91
		c-3.446,0-6.136,1.713-6.136,4.732c0,2.383,1.602,3.875,5.013,4.243l2.237,0.23c3.007,0.318,4.548,1.332,4.548,3.436
		c0,2.641-2.532,3.875-5.735,3.875c-0.63,0-1.24-0.062-1.821-0.168l-0.004,0.88c0.591,0.098,1.2,0.157,1.825,0.157
		c3.692,0,6.676-1.554,6.676-4.817C75.495,58.709,73.537,57.499,70.36,57.157"/>
	<polygon clip-path="url(#SVGID_2_)" fill="#CAB493" points="24.158,57.892 26.677,57.892 32.357,63.35 33.101,62.874 27.41,57.412 
		35.92,48.954 34.734,48.954 26.687,57.034 24.158,57.034 24.158,48.954 23.254,48.954 23.254,66.07 24.158,66.07 	"/>
	<path clip-path="url(#SVGID_2_)" fill="#CAB493" d="M3.227,60.776h9.389l1.006,2.343l0.763-0.485L8.483,48.955H7.384L0,66.07h0.953
		L3.227,60.776z M7.922,49.884l4.315,10.027H3.592L7.922,49.884z"/>
	<polygon clip-path="url(#SVGID_2_)" fill="#CAB493" points="14.3,0.135 14.3,8.202 2.467,8.202 2.467,0.135 1.563,0.135 
		1.563,17.251 2.467,17.251 2.467,9.061 14.3,9.061 14.3,13.488 15.218,12.929 15.218,0.135 	"/>
	<polygon clip-path="url(#SVGID_2_)" fill="#CAB493" points="71.603,16.395 66.585,16.395 66.585,9.061 76.818,9.061 76.818,8.203 
		66.585,8.203 66.585,0.991 77.086,0.991 77.086,0.135 65.682,0.135 65.682,17.25 70.892,17.25 	"/>
	<polygon clip-path="url(#SVGID_2_)" fill="#CAB493" points="51.041,11.95 51.944,11.099 51.944,1.003 58.398,1.003 58.398,0.135 
		44.585,0.135 44.585,1.003 51.041,1.003 	"/>
	<path clip-path="url(#SVGID_2_)" fill="#CAB493" d="M31.233,0c-4.666,0-8.347,3.235-8.657,8.035l1.03-0.626
		c0.565-3.962,3.721-6.539,7.627-6.539c4.304,0,7.726,3.14,7.726,7.823s-3.422,7.826-7.726,7.826c-0.005,0-0.011-0.002-0.017-0.002
		l0.041,0.868c4.866-0.014,8.656-3.54,8.656-8.692C39.913,3.533,36.11,0,31.233,0"/>
	<polygon clip-path="url(#SVGID_2_)" fill="#CAB493" points="95.204,16.382 86.864,16.382 86.864,4.768 85.959,4.775 85.959,17.251 
		94.507,17.251 	"/>
	<path clip-path="url(#SVGID_2_)" fill="#CAB493" d="M2.467,41.093v-7.197h3.166l2.833,3.224l0.694-0.454l-2.451-2.77H7.86
		c3.628,0,5.83-1.76,5.83-4.682c0-2.972-2.129-4.669-5.844-4.669H1.563v17.117H1.61L2.467,41.093z M2.467,25.398h5.402
		c3.107,0,4.879,1.371,4.879,3.815c0,2.461-1.76,3.852-4.879,3.852H2.467V25.398z"/>
	<polygon clip-path="url(#SVGID_2_)" fill="#CAB493" points="64.577,30.299 60.116,40.744 53.234,24.57 52.254,24.57 59.566,41.688 
		60.665,41.688 65.525,30.288 	"/>
	<polygon clip-path="url(#SVGID_2_)" fill="#CAB493" points="118.248,28.305 117.342,28.312 117.342,41.661 128.725,41.661 
		128.725,40.792 118.248,40.792 	"/>
	<path clip-path="url(#SVGID_2_)" fill="#CAB493" d="M101.924,33.638h6.38c-0.134,4.416-2.909,7.287-7.179,7.287
		c-4.265,0-7.686-3.142-7.686-7.825c0-4.682,3.421-7.823,7.725-7.823c0.459,0,0.909,0.043,1.348,0.117l1.044-0.667
		c-0.759-0.205-1.562-0.314-2.392-0.314c-4.865,0-8.678,3.53-8.678,8.687c0,5.319,4.008,8.694,8.639,8.694
		c4.966,0,8.157-3.642,8.157-8.728v-0.28h-7.358V33.638z"/>
	<path clip-path="url(#SVGID_2_)" fill="#CAB493" d="M153.439,40.901c-4.063-0.245-7.199-3.313-7.199-7.802
		c0-4.681,3.41-7.823,7.727-7.823c4.303,0,7.727,3.142,7.727,7.823c0,1.034-0.175,1.981-0.479,2.848l1.213-0.773
		c0.142-0.654,0.221-1.346,0.221-2.074c0-5.157-3.805-8.686-8.682-8.686c-4.878,0-8.678,3.529-8.678,8.686
		c0,4.546,2.948,7.825,6.985,8.547L153.439,40.901z"/>
	<path clip-path="url(#SVGID_2_)" fill="#CAB493" d="M40.24,32.747l-2.188-0.23c-3.241-0.344-4.475-1.605-4.475-3.428
		c0-2.405,2.227-3.813,5.184-3.813c2.496,0,4.34,0.832,5.625,1.774l0.464-0.734c-1.357-1.014-3.35-1.903-6.076-1.903
		c-3.448,0-6.138,1.709-6.138,4.729c0,2.383,1.604,3.875,5.014,4.242l2.236,0.233c3.008,0.316,4.548,1.331,4.548,3.434
		c0,2.64-2.529,3.874-5.732,3.874c-0.077,0-0.152-0.002-0.227-0.004v0.868c0.075,0.003,0.15,0.005,0.227,0.005
		c3.691,0,6.674-1.552,6.674-4.817C45.375,34.302,43.417,33.091,40.24,32.747"/>
	<polygon clip-path="url(#SVGID_2_)" fill="#CAB493" points="75.024,33.469 85.258,33.469 85.258,32.615 75.024,32.615 
		75.024,25.399 78.979,25.399 79.663,24.544 74.12,24.544 74.12,41.661 85.576,41.661 85.576,40.806 75.024,40.806 	"/>
	<polygon clip-path="url(#SVGID_2_)" fill="#CAB493" points="135.734,28.178 135.734,41.661 136.639,41.661 136.639,28.171 	"/>
	<polygon clip-path="url(#SVGID_2_)" fill="#CAB493" points="23.772,37.03 23.772,24.544 22.867,24.55 22.867,37.628 	"/>
</g>
</svg>
